<svg xmlns="http://www.w3.org/2000/svg" width="160" height="100" viewBox="0 0 160 100"><path fill="#010101" d="M85.37 26.39c.64-.88 1.57-1.49 2.59-1.86 1.18 2.03.69 4.46.33 6.64-.85 5.54-1.94 11.03-2.89 16.55-.44 2.18-1.01 4.42-.58 6.65.85-.44 1.63-1.06 2.03-1.95.84-1.79.9-3.8 1.3-5.7 1.96-.47 3.77-1.36 5.67-2 .94 1.75.13 3.8.7 5.66l3.06-3.41c.99-.96 2.26-1.62 3.6-1.95.46-.13 1.13-.02 1.25.53.18 1.53-.52 2.97-.77 4.46-.47 2.29-1.08 4.93.35 7.01 1.55-.58 2.85-1.64 3.87-2.92.41-4.69 1.97-9.17 3.74-13.5 1.14-2.55 2.8-4.81 4.42-7.06.69-.97 1.63-1.74 2.74-2.19.56 2.51-.31 5-.7 7.46-.87 4.83-2.74 9.63-6.2 13.2-.52.6-1.24 1.1-1.48 1.89-.05 1.06.27 2.19.96 3 .51.55 1.24 0 1.75-.29 1.01-.73 2.15-1.38 2.92-2.38.84-2.47 1.04-5.39 3.07-7.27.48-.42 1.24-1.09 1.88-.56.2.41.2.88.15 1.33-.37 2.95-1.44 5.98-3.73 7.98-.06.56-.11 1.13-.14 1.69 1.01-.51 1.92-1.23 2.61-2.14 2.03-2.63 3.46-5.81 6.13-7.9 1.57 1.83.95 4.42.87 6.6 1.48-1.07 2.64-2.52 3.57-4.07.5-.83 1.27-1.46 2.16-1.85.66 2.69-.62 5.41-.06 8.1 1.29-.54 1.46-2 1.72-3.19 1.02-3.92 2.64-7.68 3.35-11.69l-.87-.09c.61-.88 1.52-1.54 1.91-2.57.59-1.43.76-3.02 1.57-4.36.68-1.19 1.76-2.06 2.87-2.84-.64 2.27-1.62 4.41-2.36 6.64 2.13.14 4.26.02 6.4.08-.3-.48-1.03-.88-.77-1.54.35-1.14 1.33-2.38 2.61-2.37.67.58.75 1.56.77 2.39.04.94-1.08 1.11-1.65 1.62 1.43.24 2.95-.03 4.3.61.01.82-.38 1.66-1.24 1.86-3.62.99-7.41-.69-11.04.24-1.1 1.72-1.47 3.79-2.03 5.73-.77 3-2.17 5.88-2.09 9.04.83-.27 1.59-.75 2.14-1.44 1.12-1.37 2.73-2.35 3.47-4.01.85-1.78 1.66-3.82 3.57-4.71.39 3.53-.87 6.96-.76 10.48 2.36-2.22 3.66-5.5 6.6-7.08 1.19 1.81.21 4.04.59 6.03 1.82-1.23 3.17-3.01 4.87-4.39.29-.22.71-.52 1.07-.25.56.56.52 1.44.56 2.18-.11 4.42-.69 8.82-1.43 13.18-.32 2.4-.96 4.84-.39 7.25.66-.1 1.33-.21 2-.25-.53 1.79-2.31 2.83-4.13 2.79-.69-1.72-.27-3.58-.08-5.35.59-5.34 1.37-10.72.84-16.1-2.5 1.42-3.81 4.22-6.39 5.53-.18-2.32.66-4.55.69-6.86-2.64 2.03-4.29 5.14-7.25 6.79-.4-2.65.28-5.3.35-7.94-2.05 1.93-4.01 3.96-5.93 6.01-.57.59-1.12 1.34-1.97 1.51-.63.02-.85-.65-1.19-1.04-.79.78-1.75 1.61-2.95 1.34-.88-2.42 0-4.98 0-7.46-.9 1.25-1.91 2.42-2.96 3.55-1.24 1.31-1.91 3.17-3.6 4.03-.63-2.67 1.01-5.23.51-7.91-1.72 1.33-2.49 3.44-3.91 5.03-1.09 1.34-2.52 2.47-4.25 2.79-.18-1.04-.12-2.1-.08-3.14-1.77.92-2.83 3.17-5.01 3.23-1.92-.03-2.4-2.25-2.83-3.72-2.03 1.35-3.68 3.6-6.32 3.68-.72-1.5-.81-3.19-.79-4.82-2.65 1.39-4.32 4.46-7.49 4.85-.87-3.27.02-6.73 1.19-9.81.09-.37.16-.75.2-1.13-1.48.36-2.82 1.11-4.23 1.65-.71 3.44-1.73 7.37-4.99 9.29-1.5-1.68-1.18-4.11-.9-6.16 1.38-8.12 3.82-16.09 4.14-24.36-2.91 1.93-3.59 5.57-5.02 8.51-2.76 5.62-5.37 11.41-9.36 16.3.4 1.21.86 2.68 2.09 3.27 1-.08 1.22-1.31 1.78-1.97.58 2.21.15 5.12-2.11 6.23-1.41-1.82-2.04-4.08-2.57-6.28-1.41 1.56-3.1 2.82-4.68 4.19-1.22 1.06-2.78 1.87-4.43 1.75-.76-.28-1.22-1.02-1.46-1.76-.44-1.36-.38-2.82-.3-4.23-1.29 1.15-2.64 2.26-4.2 3.01-1.48.73-3.08 1.74-4.8 1.35-1.18-.33-1.35-1.7-1.47-2.73-1.09 1.2-2.17 2.86-3.99 2.8-.66.11-.79-.65-.95-1.12-.35-1.78.01-3.6-.22-5.38-2.11 1.97-2.59 5.45-5.52 6.56-.25-2.61.95-5.25.04-7.8-2.33 1.62-3.57 4.27-5.38 6.38-.54.64-1.27 1.09-2 1.48.27-2.84 1.18-5.71.49-8.56-1.23.82-1.81 2.21-2.47 3.47-1.12 1.88-2.32 3.8-4.16 5.06-.04-3.44 1.12-6.76 1.15-10.19-2.46 2.21-3.72 5.38-5.99 7.75-1.02 1.18-2.35 2.07-3.86 2.47-.22-1.04-.24-2.13.07-3.15.68-2.21 1.22-4.45 1.81-6.67-1.07.94-1.76 2.21-2.71 3.26-1.84 1.99-4.1 3.53-6.29 5.11-1.44 1.05-2.7 2.53-4.51 3.05-.84.28-1.83-.23-2.06-1.09-.35-1.57-.17-3.25.41-4.75 1.11-2.92 2.19-5.88 3.77-8.59 2.21-3.78 5.28-6.94 8.28-10.09 1.33-1.44 2.53-3.11 4.28-4.07.78-.47 1.78-.01 2.55-.51.64-.31 1.38-.97 2.1-.47.94.83.95 2.22.99 3.38.09 2.91-1.07 5.63-2.26 8.22-1.86 4.42-3.79 8.9-4.33 13.7.89-.41 1.63-1.08 2.15-1.91 1.58-2.41 3.22-4.76 4.99-7.04.73-.92 1.31-2.06 2.36-2.65.85-.33 1.09.77 1.06 1.38-.1 2.26-.7 4.46-.9 6.7 1.3-1.55 2.59-3.1 3.78-4.74.49-.69 1.22-1.15 1.97-1.52 1.36 2.26.45 4.98.62 7.44 1.03-1.86 2.69-3.25 3.89-4.99.44-.57.88-1.22 1.59-1.46.64-.21 1.15.4 1.29.96.46 1.58.2 3.25.23 4.88 1.09-1.24 1.96-2.64 2.75-4.08.35-.56.8-1.3 1.55-1.27.44-.06.64.43.78.75.77 2.3-.18 4.83.73 7.1 1.17-.38 1.95-1.35 2.81-2.16.64-2.55 1.27-5.83 4.17-6.7.37.74.64 1.57.41 2.4-.45 1.74-1.81 3.01-2.79 4.46-.64.8-.17 2.26.91 2.36 1.26.13 2.48-.41 3.61-.92 1.69-.91 3.37-2.15 4.12-3.99.98-1.58 2.39-2.82 3.6-4.22 1.48-1.71 3.36-3.07 4.65-4.95.16-2.26-.23-4.54-.06-6.82-2.41.57-4.76 2.32-5.06 4.94-.74.44-1.52.82-2.32 1.12-.17-1.66-.08-3.42.75-4.9 1.07-2 3.1-3.25 5.08-4.22 2.52-1.2 5.11-2.39 7.91-2.7.72 3.71-.12 7.6-2.09 10.79-.82 1.38-1.78 2.68-2.78 3.93.16 2.07.35 4.14.59 6.2 4.08-5.54 7.14-11.75 10.02-17.98 1.07-2.23 1.83-4.65 3.34-6.65zm-14.56 9.11c-.14 1.9.09 3.79.26 5.68 1.41-1.7 2.96-3.36 3.75-5.46.24-.58.21-1.2.17-1.81-1.51.13-2.94.73-4.18 1.59zm-53.15 3.01c-2.93 4-6.21 7.73-9.27 11.63-1.38 1.75-3.18 3.63-2.92 6.05.05.79.35 2.05 1.38 1.91 1.59-.27 2.74-1.52 4.03-2.38 2.47-1.67 4.55-3.82 6.5-6.06 1.02-1.21 2.39-2.12 3.26-3.46.99-1.81.74-4.01 1.65-5.86.39-.78 1.41-1.01 1.75-1.82.42-1.5-.33-3.05-1.46-4.03-2.1.64-3.64 2.32-4.92 4.02zm94.37 1.43c-2 3.56-3.68 7.49-3.51 11.66 2.17-1.74 3.18-4.44 4.05-6.99.9-2.87 1.53-5.85 1.59-8.86-.68 1.41-1.37 2.82-2.13 4.19zm-102.31 5.68c-1.05 1.51-2.24 3-2.66 4.83.63-.94 1.14-1.95 1.78-2.88 2.45-3.72 5.63-6.87 8.13-10.54-2.64 2.67-5.06 5.55-7.25 8.59zm52.35 10.76c.49.45.99 1.04 1.72 1.03 1.06.03 1.96-.64 2.78-1.25 1.6-1.27 3.23-2.53 4.57-4.08-.25-1.99-.54-3.97-.76-5.96-3.11 3.13-6.04 6.47-8.31 10.26zm36.67-8.54c-1.04.82-2.12 1.68-2.75 2.88-.34.56-.98.85-1.35 1.38-.95 1.35-1.23 3.04-1.27 4.65.94-.28 1.76-.82 2.5-1.43.93-.76 2.12-1.2 2.85-2.19.56-.95.5-2.09.8-3.13.18-.73.58-1.43.54-2.21-.29-.61-.95-.26-1.32.05zm17.01 5.82c1.47-1.25 2.48-3.22 2.01-5.18-1.04 1.56-1.55 3.39-2.01 5.18zm-62.72-.61c1.19-1.03 1.83-2.51 2.19-4-1.38.87-1.81 2.51-2.19 4zM55.95 67.14l.57.06c.43.99.86 1.97 1.3 2.95.57-1.08.8-2.4 1.73-3.24-.1 1.41-1.06 2.55-1.45 3.87-.08.77-.02 1.55-.03 2.32h-.5c-.02-.79.06-1.59-.05-2.38-.47-1.22-1.08-2.38-1.57-3.58zM73.42 67.17h.51c.35 1.73.66 3.46 1.06 5.18.42-1.71.64-3.47 1.07-5.17l.52-.01c.44 1.73.68 3.5 1.07 5.24.38-1.74.7-3.49 1.06-5.23h.51c-.42 1.98-.83 3.96-1.26 5.94l-.64-.02c-.33-1.74-.64-3.49-.99-5.23-.37 1.74-.67 3.49-1 5.24h-.65c-.43-1.99-.84-3.96-1.26-5.94zM94.73 67.17h.66c.57 2.04 1.26 4.05 1.74 6.11-.87-.23-.75-1.25-1.04-1.91h-2.08l-.48 1.72h-.55c.59-1.97 1.17-3.94 1.75-5.92zm.33.38c-.31 1.13-.62 2.26-.92 3.39.62.01 1.24.01 1.86.01-.31-1.14-.62-2.27-.94-3.4zM47.76 67.17h2.93v.43h-2.41v2.21h2.26v.41h-2.26v2.45c.95.03 1.93-.14 2.84.22-1.08.37-2.24.16-3.36.21v-5.93zM65.13 67.17h2.93v.43h-2.44v2.21c.76 0 1.53 0 2.3.02l-.03.4h-2.27c-.01.81 0 1.63 0 2.45.84 0 1.67 0 2.51.01l-.01.42h-2.99v-5.94zM84.78 67.17h2.93l-.01.43h-2.41v2.2h2.26v.41h-2.25v2.45h2.49v.42h-3.01v-5.91zM102.59 67.17c1.02.1 2.42-.35 3.1.66.56.99-.05 2.17-1.03 2.59-.52-.03-1.03-.03-1.54-.04v2.72h-.53v-5.93zm.53.41v2.4c.55-.04 1.14.04 1.66-.17.82-.37.81-1.81-.06-2.11-.52-.14-1.07-.09-1.6-.12zM105.16 70.46l.64-.2-.21.17c.27.88.23 1.81.39 2.71l-.6-.11-.11-2.03-.29.07.18-.61z"/></svg>