<svg xmlns="http://www.w3.org/2000/svg" width="160" height="100" viewBox="0 0 160 100"><g fill="#010101"><path d="M17.23 38.06l4.81 10.67 4.91-10.67h1.02l6.33 23.27h-5.62l-2.58-9.69-4.06 9.15-4.1-9.05-2.58 9.59h-5.45l6.3-23.27z"/><path d="M49.96 56.66c3.45 0 6.2-2.95 6.2-6.61s-2.74-6.64-6.13-6.64c-3.35 0-6.17 2.98-6.17 6.54 0 3.73 2.71 6.71 6.1 6.71m-.04-18.4c6.54 0 11.79 5.22 11.79 11.79 0 6.5-5.25 11.75-11.69 11.75-6.4.03-11.72-5.25-11.72-11.59 0-6.63 5.18-11.95 11.62-11.95"/><path d="M79.65 44.29c-2.41-.71-3.73-.98-4.98-.98-1.08 0-1.76.54-1.76 1.42 0 .74.41 1.22 1.56 1.79.27.13.85.44 1.76.95 2.74 1.46 2.98 1.63 3.89 2.3 1.63 1.29 2.51 3.08 2.51 5.08 0 4.13-3.35 7.08-8.03 7.08-1.19 0-3.12-.27-4.57-.57-1.02-.24-1.63-.44-3.25-1.02l1.29-5.22c1.39.51 1.9.68 2.71.91 1.66.47 3.01.71 4.03.71 1.15 0 1.96-.78 1.96-1.93 0-1.05-.27-1.25-3.32-2.85-2.81-1.46-3.36-1.76-4.34-2.61-1.32-1.15-2-2.64-2-4.51 0-3.96 3.12-6.71 7.66-6.71 1.12 0 2.44.17 4.03.54.78.2 1.29.34 2.71.75l-1.86 4.87z"/><path d="M103.94 44.83c-.34-.24-.61-.37-.78-.47-1.15-.61-2.54-.95-3.73-.95-3.29 0-5.96 2.98-5.96 6.71 0 3.69 2.71 6.57 6.23 6.57 1.59 0 2.81-.44 4.71-1.73l.81 5.59-.81.37c-1.39.58-3.19.92-4.74.92-6.57 0-11.76-5.22-11.76-11.82 0-6.67 5.22-11.79 12.03-11.79.75 0 1.52.07 2.24.2 1.02.2 1.59.37 2.91.88l-1.15 5.52z"/><path d="M120.82 56.66c3.45 0 6.2-2.95 6.2-6.61s-2.74-6.64-6.13-6.64c-3.36 0-6.17 2.98-6.17 6.54 0 3.73 2.71 6.71 6.1 6.71m-.03-18.4c6.54 0 11.79 5.22 11.79 11.79 0 6.5-5.25 11.75-11.69 11.75-6.4.03-11.72-5.25-11.72-11.59 0-6.63 5.18-11.95 11.62-11.95"/><path d="M150.09 38.74v4.98h-3.76v17.61h-5.38v-17.61h-4.44l.78-4.98z"/></g></svg>