<svg xmlns="http://www.w3.org/2000/svg" width="160" height="100" viewBox="0 0 160 100"><path fill="#010101" d="M28.75 88.69v-2.92c0-1.78.91-2.91 2.8-2.91 1.89 0 2.8 1.14 2.8 2.91v2.92c0 2.47-.91 3.44-2.8 3.44-1.89.01-2.8-.97-2.8-3.44zm4.44.05v-3.01c0-1.86-1.28-1.93-1.64-1.93-.36 0-1.64.06-1.64 1.93v3.01c0 1.95.57 2.44 1.64 2.44 1.07.01 1.64-.49 1.64-2.44zm3.38 3.21v-8.91h1.14v7.92h3.27v.99h-4.41zm7.01 0h-1.14v-8.91h1.14v8.91zm5.5 0h-1.36l-2.58-8.91h1.23l2.04 7.84h.02l2.09-7.84h1.16l-2.6 8.91zm4.01 0v-8.91h4.59v.99h-3.46v2.86h3.21v.99h-3.21v3.09h3.53v.99h-4.66zm7.53-4.1v4.1h-1.14v-8.91h3.07c1.58 0 2.14 1.11 2.14 2.22 0 1.05-.58 1.85-1.63 2.04v.02c1.02.16 1.39.51 1.46 2.3.01.38.14 1.78.31 2.33h-1.18c-.32-.62-.25-1.78-.35-2.96-.09-1.09-.96-1.14-1.35-1.14h-1.33zm0-.98h1.7c.81 0 1.21-.7 1.21-1.48 0-.64-.32-1.36-1.2-1.36h-1.72v2.84zm13.26-1.45c0-1.05-.43-1.62-1.58-1.62-.36 0-1.64.06-1.64 1.93v3.01c0 1.95.57 2.44 1.64 2.44.81 0 1.36-.22 1.59-.39v-2.67h-1.64v-.99h2.78v4.33c-.73.39-1.58.67-2.73.67-1.89 0-2.8-.97-2.8-3.44v-2.92c0-1.78.91-2.91 2.8-2.91 1.93 0 2.84.7 2.76 2.57h-1.18zm3.48 3.27v-2.92c0-1.78.91-2.91 2.8-2.91 1.89 0 2.8 1.14 2.8 2.91v2.92c0 2.47-.91 3.44-2.8 3.44-1.89.01-2.8-.97-2.8-3.44zm4.44.05v-3.01c0-1.86-1.28-1.93-1.64-1.93-.36 0-1.64.06-1.64 1.93v3.01c0 1.95.57 2.44 1.64 2.44 1.07.01 1.64-.49 1.64-2.44zm3.38 3.21v-8.91h1.14v7.92h3.27v.99h-4.41zm5.76-8.91h2.74c1.14 0 1.95.41 2.39 1.36.36.75.39 2.53.39 2.81 0 1.9-.17 3-.54 3.59-.48.77-1.38 1.15-2.94 1.15h-2.05v-8.91zm1.13 7.92h1.07c1.58 0 2.16-.59 2.16-2.67v-1.8c0-1.8-.56-2.47-1.74-2.47h-1.49v6.94zm7.49-1.66v.26c0 1.21.77 1.59 1.49 1.59.9 0 1.59-.38 1.59-1.44 0-1.97-4-1.75-4-4.43 0-1.58 1.12-2.42 2.62-2.42 1.63 0 2.54.79 2.47 2.6h-1.18c.01-.98-.3-1.62-1.37-1.62-.68 0-1.37.35-1.37 1.31 0 1.96 4 1.68 4 4.5 0 1.88-1.3 2.48-2.76 2.48-2.63.02-2.63-1.99-2.6-2.84h1.11zm7.32 2.65h-1.06v-8.91h1.84l2.25 7.48h.02l2.27-7.48h1.88v8.91h-1.14v-7.92h-.02l-2.49 7.92h-1.07l-2.44-7.92h-.02v7.92zm10.74 0h-1.14v-8.91h1.14v8.91zm7.4-8.91v.99h-2.35v7.92h-1.14v-7.92h-2.34v-.99h5.83zm1.49 8.91v-8.91h1.14v3.85h3.12v-3.85h1.14v8.91h-1.14v-4.07h-3.12v4.07h-1.14zm-42.13-73.82c4.5-3.37 10.09-5.37 16.13-5.37 10.31 0 19.28 5.82 23.82 14.34h5.43c-4.9-11.3-16.16-19.23-29.25-19.23-7.41 0-14.23 2.54-19.65 6.8 1.26 1.06 2.43 2.21 3.52 3.46zm17.24 24.51v4.89h24.69c-3.36 11.07-13.66 19.15-25.81 19.15-6.04 0-11.62-1.99-16.12-5.36l-.01.01-.78-.63-.01-.01c-.32-.26-.64-.53-.95-.81l-.02-.02c-.31-.28-.62-.56-.91-.85l-.02-.02c-.3-.29-.59-.59-.87-.89l-.03-.03c-.28-.3-.56-.61-.82-.92l-.01-.01-.54-.63.01-.01c-3.68-4.61-5.88-10.45-5.88-16.79s2.2-12.17 5.87-16.78c-1.06-1.25-2.24-2.4-3.52-3.43-4.53 5.5-7.25 12.54-7.25 20.21 0 7.93 2.91 15.19 7.72 20.77l.14.16c1.04 1.2 2.19 2.33 3.41 3.36l.2.17c5.53 4.61 12.64 7.39 20.38 7.39 16.58 0 30.25-12.73 31.72-28.94h-30.59zm-25.86 18.68c-4.5 3.37-10.09 5.37-16.13 5.37-14.87 0-26.96-12.1-26.96-26.96s12.1-26.96 26.96-26.96c14.87 0 26.96 12.1 26.96 26.96 0 6.34-2.2 12.17-5.87 16.78 1.06 1.25 2.24 2.4 3.52 3.43 4.53-5.5 7.25-12.54 7.25-20.21 0-17.57-14.29-31.86-31.86-31.86s-31.86 14.29-31.86 31.86 14.29 31.86 31.86 31.86c7.41 0 14.23-2.54 19.65-6.8-1.26-1.08-2.44-2.23-3.52-3.47z"/></svg>