<svg xmlns="http://www.w3.org/2000/svg" width="160" height="100" viewBox="0 0 160 100"><path fill="#010101" d="M124.34 44.14c1.52-1.45 3.61-2.3 5.72-2.25 1.71-.03 3.42.54 4.8 1.55 1.39 1.03 2.47 2.5 2.96 4.18.63 2.12.4 4.5-.71 6.43-1.04 1.84-2.83 3.23-4.87 3.78-1.97.53-4.14.34-5.96-.6-1.77-.88-3.16-2.46-3.86-4.3-.44-1.15-.58-2.4-.51-3.63l-.08-.11.12-.1c.17-1.88 1.05-3.65 2.39-4.95zm4.91-.8c-2.6.32-4.84 2.36-5.52 4.88-.51 1.76-.21 3.72.75 5.27.99 1.62 2.67 2.83 4.56 3.12 1.72.31 3.54-.24 4.9-1.32 1.49-1.16 2.46-2.96 2.59-4.85.17-2.16-.82-4.34-2.5-5.69-1.31-1.08-3.07-1.62-4.78-1.41zM2.15 57.73v-15.47h1.59v14.04h6.86v1.42c-2.82.01-5.63.01-8.45.01zM12.74 42.26h1.6c.01 5.16 0 10.31 0 15.47h-1.6c0-5.16.01-10.31 0-15.47zM18.27 42.27c2.15 2.32 4.23 4.7 6.36 7.05 1.35 1.51 2.71 3.02 4.05 4.53.02-3.86 0-7.72.01-11.59h1.6c0 5.14.01 10.28 0 15.42-1.13-1.16-2.18-2.4-3.27-3.6-2.39-2.66-4.77-5.33-7.15-7.99.01 3.88 0 7.76 0 11.63h-1.6c-.01-5.14-.01-10.3 0-15.45zM34.24 57.73v-15.47h3.85c1.65.01 3.29.55 4.61 1.55 1.61 1.22 2.7 3.11 2.97 5.12.44 2.92-.97 6.03-3.47 7.59-1.13.72-2.46 1.13-3.8 1.2-1.38.01-2.77.01-4.16.01zm1.6-14.06v12.64h2.45c2.5-.18 4.81-1.98 5.55-4.38.47-1.49.37-3.15-.28-4.57-.76-1.66-2.27-2.94-4.02-3.45-1.19-.38-2.46-.2-3.7-.24zM52.86 44.81c.44-.86.85-1.73 1.31-2.58 2.58 5.17 5.17 10.33 7.74 15.5-.58 0-1.16-.01-1.74 0-.88-1.73-1.75-3.47-2.61-5.21-2.32 0-4.63-.01-6.94 0l-2.55 5.21h-1.61c.63-1.34 1.32-2.66 1.98-3.99 1.44-2.98 2.95-5.94 4.42-8.93zm-1.48 6.29l5.54-.01c-.92-1.88-1.84-3.76-2.76-5.65-.94 1.88-1.86 3.77-2.78 5.66zM75.56 42.26h8.01v1.41h-6.4v5.28c1.64 0 3.28-.01 4.93.01l.01 1.42h-4.94c.01 2.45 0 4.9 0 7.36h-1.61c-.01-5.17-.01-10.32 0-15.48zM88.18 46.1c.66-1.28 1.26-2.6 1.95-3.87 2.59 5.16 5.17 10.33 7.75 15.5h-1.77c-.88-1.73-1.72-3.48-2.59-5.21h-6.95c-.84 1.74-1.72 3.47-2.55 5.21h-1.63l5.79-11.63zm1.95-.66c-.93 1.88-1.85 3.78-2.79 5.66h5.55c-.92-1.89-1.85-3.77-2.76-5.66zM100.01 42.26h3.89c1.22.04 2.47.41 3.39 1.24 1.2 1.09 1.51 2.89 1.18 4.42-.18.91-.79 1.68-1.56 2.19-.93.6-2.06.8-3.15.77l4.96 6.84h-1.93c-1.72-2.53-3.48-5.02-5.19-7.55.01 2.52 0 5.03 0 7.55h-1.6c.01-5.15.02-10.3.01-15.46zm1.61 1.41v6.4c.85-.01 1.7.03 2.54-.03.88-.09 1.67-.61 2.2-1.3.72-.95.8-2.28.36-3.37-.39-.93-1.34-1.52-2.31-1.64-.93-.13-1.86-.04-2.79-.06zM111.39 57.73v-15.47h3.75c1.09 0 2.2.29 3.11.9.81.56 1.39 1.44 1.59 2.41.18.88.19 1.82-.08 2.69-.28.9-.99 1.63-1.81 2.06-.86.44-1.85.6-2.81.56 1.66 2.28 3.32 4.56 4.99 6.85h-1.93c-1.74-2.51-3.46-5.02-5.2-7.52-.01 2.51 0 5.01 0 7.52h-1.61zm1.61-14.06v6.41c.79-.01 1.57.01 2.36-.01 1.03-.05 1.99-.66 2.53-1.53.6-.96.64-2.21.18-3.23-.36-.81-1.17-1.35-2.02-1.53-1.01-.2-2.04-.08-3.05-.11zM138.3 42.26c.59-.01 1.17 0 1.76 0 1.66 3.93 3.27 7.89 4.94 11.82.73-1.89 1.5-3.77 2.22-5.66-.07-.41-.32-.77-.45-1.16-.71-1.67-1.42-3.33-2.12-5l1.55-.01c.65 1.48 1.23 3 1.89 4.47.57-1.5 1.18-2.98 1.78-4.47h1.52c-.83 2.04-1.67 4.07-2.49 6.11.8 1.99 1.59 3.99 2.4 5.98 1.59-3.98 3.15-7.98 4.73-11.97l.08-.12c.58-.02 1.16 0 1.74 0l-5.1 12.28c-.47 1.07-.86 2.17-1.38 3.22-1.07-2.69-2.22-5.34-3.26-8.04-.86 2.08-1.68 4.17-2.53 6.26-.25.6-.46 1.21-.75 1.79-2.17-5.17-4.37-10.32-6.53-15.5z"/></svg>