<svg xmlns="http://www.w3.org/2000/svg" width="160" height="100" viewBox="0 0 160 100"><path fill="#010101" d="M55.9 30.96c1.52-2.29 4.46-3.04 7.06-2.92 2.16.02 4.63.7 5.75 2.72 1.57 2.84 1.07 6.22 1.16 9.33h-5.51c-.13-2.22.35-4.55-.43-6.68-.54-1.48-2.84-1.47-3.56-.15-.52.98-.46 2.14-.5 3.22.02 1.43-.14 2.91.34 4.29.64 1.9 1.89 3.5 3.02 5.12 1.41 2.04 2.86 4.06 4.26 6.11 1.62 2.39 2.64 5.25 2.52 8.16.03 3.09.09 6.51-1.87 9.1-1.6 2.16-4.47 2.84-7.03 2.7-2.29-.02-5.03-.61-6.15-2.85-1.52-3.07-.97-6.6-1.08-9.91h5.63c.15 2.38-.38 4.9.48 7.18.64 1.72 3.39 1.56 3.98-.12.61-1.77.32-3.68.4-5.52.14-3.93-2.76-6.93-4.75-10.01-2.06-3.25-5.1-6.26-5.25-10.32 0-3.18-.35-6.68 1.53-9.45zM76.13 30.83c1.65-2.35 4.77-2.97 7.47-2.77 2.04.08 4.29.86 5.29 2.77 1.52 2.84 1.04 6.17 1.13 9.26-1.83.01-3.67 0-5.5 0-.03-1.72.07-3.45-.07-5.17-.09-.89-.34-1.91-1.15-2.41-.97-.52-2.38-.16-2.86.87-.49 1.05-.39 2.25-.43 3.38.02 1.29-.13 2.63.3 3.87.42 1.31 1.13 2.49 1.91 3.62l5.24 7.49c1.58 2.29 2.7 5 2.68 7.82.01 3.17.22 6.63-1.62 9.39-1.5 2.31-4.43 3.16-7.05 3.02-2.32.01-5.12-.53-6.3-2.77-1.59-3.08-1.01-6.66-1.13-9.99 1.89.03 3.78-.07 5.66.07.02 1.92-.1 3.83.07 5.74.12 1.12.71 2.5 2 2.58 1.18.2 2.31-.66 2.53-1.81.34-1.76.22-3.56.24-5.34.02-2.58-1.4-4.86-2.82-6.91-1.7-2.46-3.4-4.91-5.09-7.38-1.27-1.86-2.19-4.06-2.1-6.35-.02-3.03-.28-6.38 1.6-8.98zM1.56 28.69l8.38-.01 3.81 33.87c.1.82.12 1.68.42 2.46.21-.98.3-1.99.42-2.99 1.3-11.11 2.61-22.22 3.91-33.34h8.17v42.59h-4.62c-.01-12.66.02-25.31-.02-37.97-.46.04-.67.29-.65.73-1.46 12.41-2.9 24.83-4.38 37.24l-6.09-.01c-1.4-12.41-2.81-24.83-4.24-37.24-.01-.37-.19-.63-.56-.78-.09 12.67-.01 25.35-.03 38.03h-4.51c-.01-14.2-.01-28.39-.01-42.58zM37.36 28.68h7.46l6.45 42.59h-5.55c-.44-3.6-.93-7.19-1.34-10.8-2.37-.05-4.74-.02-7.11-.02-.54 3.6-1.1 7.21-1.63 10.82-1.74.01-3.48.01-5.23 0 2.34-14.2 4.64-28.39 6.95-42.59zm3.33 5.93c-.93 7.17-1.88 14.34-2.83 21.52h5.9c-.92-7.69-1.74-15.38-2.74-23.06-.15.5-.27 1.02-.33 1.54zM99.61 28.68c2.49-.01 4.98 0 7.46 0 2.15 14.19 4.31 28.39 6.46 42.59h-5.54c-.46-3.6-.93-7.19-1.34-10.8-2.37-.05-4.74-.02-7.11-.03-.55 3.61-1.1 7.22-1.64 10.82h-5.21c2.3-14.19 4.62-28.38 6.92-42.58zm3.63 4.41c-.11.41-.19.83-.26 1.25-.94 7.26-1.9 14.52-2.86 21.78h5.9c-.85-7.28-1.7-14.56-2.55-21.83-.05-.4-.14-.8-.23-1.2zM117.32 28.68c3.51.08 7.05-.25 10.52.4 1.78.36 3.71 1.09 4.62 2.78 1.2 2.23 1.38 4.84 1.47 7.33.02 7.09.01 14.18 0 21.26-.07 2.57-.24 5.28-1.47 7.6-1.04 1.92-3.31 2.61-5.32 2.94-3.25.48-6.56.21-9.83.28.01-14.2.01-28.39.01-42.59zm5.51 38.22c1.54-.05 3.32.17 4.61-.85.86-.92.9-2.28.95-3.47.01-8.4.01-16.81 0-25.21-.06-1.18-.11-2.54-.97-3.45-1.28-1.03-3.05-.83-4.59-.87-.01 11.28 0 22.56 0 33.85zM144.51 28.68c2.49-.01 4.98 0 7.47 0 2.15 14.19 4.3 28.39 6.46 42.59h-5.55c-.45-3.61-.91-7.22-1.36-10.82h-7.09c-.55 3.61-1.09 7.22-1.64 10.82-1.73-.01-3.47.01-5.2-.01 2.28-14.2 4.62-28.38 6.91-42.58zm3.61 4.39c-1.16 7.66-2.04 15.37-3.1 23.05h5.89c-.78-6.74-1.58-13.48-2.35-20.21-.12-.95-.18-1.91-.44-2.84z"/></svg>