<svg xmlns="http://www.w3.org/2000/svg" width="160" height="100" viewBox="0 0 160 100"><path fill="#010101" d="M106.29 43.5c.55-.09 1.1-.01 1.65.08 1.38.23 2.7.81 3.77 1.72.85.72 1.51 1.67 1.87 2.73.41 1.21.45 2.54.09 3.77-.41 1.42-1.34 2.68-2.56 3.51-1.08.75-2.38 1.16-3.69 1.21-1.51.08-3.06-.2-4.38-.97-1.02-.59-1.91-1.41-2.54-2.41-.65-1.03-.92-2.27-.83-3.47.11-1.36.57-2.73 1.44-3.79.75-.92 1.79-1.57 2.91-1.95.72-.26 1.5-.37 2.27-.43zm-.87.71c-1.12.22-2.11 1.02-2.55 2.08-.36.87-.58 1.81-.64 2.75-.09 1.37.24 2.77.91 3.97.55.95 1.23 1.9 2.22 2.44 1.18.66 2.69.57 3.86-.07.8-.44 1.36-1.21 1.66-2.06.3-.8.36-1.65.44-2.49-.01-.9-.15-1.8-.43-2.65-.39-1.21-1.07-2.35-2.08-3.14-.94-.74-2.21-1.08-3.39-.83zM9.47 43.57c1.83-.25 3.76.12 5.34 1.09 1.13.69 2.06 1.71 2.59 2.93.59 1.32.68 2.85.25 4.23-.53 1.77-1.86 3.27-3.53 4.05-1.01.48-2.14.68-3.26.67-1.55.01-3.13-.38-4.4-1.3-.66-.48-1.24-1.07-1.7-1.74-.47-.71-.7-1.53-1.01-2.31-.06-.16-.15-.32-.13-.49.01-.5-.01-.99.01-1.49.25-1.16.69-2.31 1.43-3.24 1.08-1.35 2.72-2.17 4.41-2.4zm-.01.64c-.96.21-1.82.82-2.35 1.64-.6.91-.77 2.03-.81 3.11-.03 1.42.18 2.88.83 4.15.54 1.05 1.42 1.91 2.48 2.41.93.44 2.04.51 3.01.13.93-.35 1.69-1.09 2.1-1.98.36-.78.46-1.65.58-2.49-.03-1.29-.2-2.61-.71-3.8-.44-1-1.13-1.91-2.04-2.53-.89-.62-2.03-.88-3.09-.64zM150.41 43.88c1.61-.64 3.41-.43 5.05-.03.25.07.43.34.41.59.03.86.01 1.71.01 2.57-.15.02-.32.09-.45-.01-.14-.12-.15-.32-.2-.48-.24-1-1-1.87-1.97-2.22-.84-.3-1.81-.23-2.6.2-.79.42-1.16 1.52-.7 2.31.28.5.81.78 1.29 1.07.76.44 1.52.86 2.27 1.32.92.54 1.9 1.12 2.43 2.09.65 1.14.53 2.65-.27 3.68-.67.9-1.76 1.37-2.84 1.51-1.15.16-2.31-.02-3.45-.2-.33-.06-.69-.1-.98-.3-.27-.19-.32-.54-.36-.85-.07-.7-.09-1.39-.14-2.09.17-.06.36-.16.53-.06.19.12.25.35.34.55.39.98 1.18 1.84 2.19 2.18.67.23 1.42.23 2.09.01.51-.17.98-.49 1.26-.95.36-.57.38-1.36.01-1.93-.24-.38-.61-.65-.99-.88-.66-.4-1.36-.73-2.03-1.12-.72-.41-1.49-.77-2.11-1.34-.86-.79-1.26-2.03-1-3.17.25-1.13 1.13-2.06 2.21-2.45zM19.13 43.98c.19-.11.38-.26.61-.24 1.32-.02 2.63-.02 3.95 0 .2-.01.37.11.54.2-.12.12-.22.3-.4.33-.26.05-.53.13-.72.33-.29.3-.33.75-.34 1.15-.01 2.84-.01 5.69 0 8.53 0 .33.07.7.32.94.21.21.52.29.81.3.96.02 1.92.03 2.87-.09.43-.06.84-.25 1.15-.57.32-.32.52-.74.65-1.16.07-.26.28-.43.45-.63l.23.14-.27 3.05h-9.8l-.1-.23c.33-.27.81-.25 1.13-.54.24-.21.33-.53.32-.84.01-3.06.01-6.11 0-9.17.01-.31-.07-.64-.3-.86l-1.1-.64zM30.05 43.94c.14-.08.27-.2.44-.2 1.41-.02 2.83-.02 4.24 0 .17-.01.29.14.43.23-.12.13-.24.3-.44.3-.29.05-.59.17-.76.42-.24.35-.24.79-.24 1.19.01 2.82.01 5.64 0 8.46 0 .45.08.97.48 1.24.29.23.72.13.94.46-.11.08-.19.25-.34.24-1.57.02-3.14.01-4.71.01l-.09-.26 1.09-.52c.35-.3.41-.8.41-1.24 0-2.84.02-5.68 0-8.53-.01-.38 0-.84-.32-1.1-.33-.31-.9-.26-1.13-.7zM35.46 43.91c.13-.07.25-.18.4-.17.77 0 1.54.05 2.3.04.79 0 1.58-.04 2.37-.03.22-.01.38.15.56.25-.39.37-.98.2-1.42.47-.14.08-.21.26-.19.41.03.28.15.54.25.79 1.07 2.41 2.16 4.81 3.25 7.21.11.26.27.49.41.72.96-2.67 1.93-5.34 2.83-8.02.09-.29.22-.61.09-.9-.14-.26-.46-.33-.72-.41-.21-.05-.35-.21-.51-.34l.1-.2c1.22 0 2.44-.01 3.65.01.18-.02.29.16.42.26-.11.09-.19.25-.36.24-.31.01-.63.07-.89.26-.42.29-.64.77-.84 1.23l-4.15 9.96c-.11.28-.33.49-.52.72-.19-.22-.42-.42-.55-.69-1.56-3.3-3.11-6.61-4.65-9.91-.24-.52-.48-1.09-1-1.38-.21-.13-.47-.14-.7-.22l-.13-.3zM49.54 43.98c.13-.1.25-.27.44-.25 2.82-.01 5.64-.01 8.46-.01v3.12c-.19-.22-.49-.39-.55-.7-.14-.56-.48-1.08-.99-1.37-.57-.34-1.24-.38-1.89-.38-.58-.01-1.16.01-1.75.01v5.06c.73 0 1.45.05 2.18-.02.35-.04.68-.24.87-.54.14-.2.18-.45.26-.68.08-.15.23-.25.35-.38.1.17.25.34.25.55.03.98.02 1.96 0 2.94.01.21-.12.39-.22.56-.16-.16-.35-.31-.39-.54-.11-.42-.29-.91-.75-1.04-.84-.23-1.72-.12-2.58-.13 0 1.43-.04 2.87.03 4.3-.02.42.3.81.68.98 1.07.33 2.31.41 3.32-.15.55-.28.83-.86 1.15-1.35.2-.32.44-.61.67-.92l.23.12-.24 3.07c-3.16-.01-6.33.01-9.49-.01l-.09-.17c.33-.33.86-.26 1.17-.6.27-.27.34-.67.33-1.04 0-2.79-.01-5.59 0-8.38 0-.44.04-.92-.21-1.3-.18-.29-.52-.42-.85-.47-.16-.03-.26-.17-.39-.28zM60.49 43.96c.14-.09.27-.24.46-.22 1.86.01 3.72-.05 5.58.05.75.03 1.54.1 2.22.46.6.31 1.06.87 1.28 1.51.25.76.29 1.62-.03 2.36-.26.6-.73 1.08-1.27 1.44-.31.22-.66.37-.98.58.93 1.64 1.84 3.29 2.82 4.9.13.26.36.45.62.6.39.22.76.47 1.15.7-.85.24-1.77.26-2.62-.02-.81-.27-1.52-.82-1.98-1.54-.58-.94-1.03-1.94-1.51-2.93-.21-.43-.42-.89-.83-1.17-.34-.24-.77-.28-1.17-.23 0 1.46-.04 2.92.03 4.38-.01.27.22.43.41.58.3.23.6.47.97.58l-.04.19c-.16.05-.32.1-.48.09-1.34 0-2.68.01-4.02-.01-.21.01-.4-.09-.58-.17.17-.17.36-.33.6-.38.46-.12.8-.56.79-1.03.02-3.08.01-6.16.01-9.24 0-.31-.08-.65-.31-.87-.19-.2-.47-.28-.73-.33-.18 0-.27-.17-.39-.28zm4.15.32c-.23.07-.41.28-.47.51-.05.53-.04 1.06-.03 1.6.01.95-.01 1.91.01 2.86.01.22.04.51.28.6.52.23 1.12.14 1.65 0 .53-.16 1.08-.39 1.43-.85.49-.82.56-1.86.23-2.74-.23-.59-.55-1.18-1.09-1.55-.58-.41-1.32-.51-2.01-.43zM77.73 43.71c1.81.01 3.63-.04 5.44.03.96.08 1.96.2 2.8.69.72.41 1.23 1.16 1.38 1.98.14.78.12 1.62-.21 2.34-.27.59-.79 1.04-1.38 1.28-.8.33-1.67.4-2.52.49-.61.07-1.22.02-1.83.02 0 1.38-.01 2.76.01 4.14-.01.4.22.79.58.95l.9.31-.03.25c-.7.14-1.42.07-2.14.09-.79 0-1.58 0-2.38-.01-.23 0-.44-.12-.65-.21.33-.33.85-.3 1.16-.65.22-.23.29-.56.29-.86.01-3.03.02-6.07 0-9.1 0-.29-.07-.59-.26-.81-.19-.22-.47-.32-.74-.37-.2-.04-.35-.18-.51-.3l.09-.26zm3.7.89c-.05 1.71-.03 3.42-.03 5.13.65.17 1.34.27 2.01.13.46-.09.92-.3 1.22-.67.57-.75.72-1.78.44-2.68-.21-.67-.53-1.34-1.11-1.77-.57-.43-1.31-.54-2.01-.49-.21.01-.45.14-.52.35zM115.14 43.97c.12-.1.24-.26.42-.22 1.86.03 3.73.02 5.59.13.6.04 1.22.05 1.79.29.73.28 1.32.88 1.62 1.61.39.96.47 2.11-.04 3.04-.33.61-.9 1.07-1.54 1.32-.71.29-1.5.35-2.26.38-.63.02-1.26.07-1.89.05 0 1.43-.02 2.86.01 4.28 0 .44.38.78.78.89.24.05.45.19.65.34l-.15.17h-4.96l-.08-.18c.34-.32.86-.29 1.18-.64.22-.23.28-.55.28-.86.01-3.04.01-6.07 0-9.11.01-.37-.12-.77-.44-.97-.2-.15-.45-.18-.68-.24l-.28-.28zm3.66.76c-.02 1.7-.01 3.4-.01 5.09.8-.01 1.62.12 2.42-.08.62-.16 1.13-.69 1.23-1.33.11-.73.09-1.49-.1-2.2-.16-.61-.54-1.17-1.06-1.52-.59-.4-1.35-.53-2.05-.41-.2.05-.45.21-.43.45zM125.75 43.94c.17-.09.35-.22.56-.21 1.34-.01 2.69-.02 4.03 0 .2-.01.35.14.51.23-.14.11-.27.26-.46.3-.28.06-.58.18-.75.42-.18.24-.22.54-.22.83-.01 2.96-.02 5.93-.01 8.89 0 .34.13.72.43.91.27.18.6.18.92.18.94.01 1.88.02 2.81-.13.78-.15 1.34-.82 1.57-1.54.08-.31.28-.55.47-.8l.27.12c-.08.87-.13 1.75-.25 2.62.01.36-.42.47-.7.5-3.05.02-6.09-.04-9.14-.03l-.08-.24c.29-.31.77-.21 1.07-.5.42-.36.42-.95.41-1.46l-.01-8.46c0-.36-.07-.76-.34-1.02-.18-.18-.43-.26-.67-.31-.19-.01-.29-.18-.42-.3zM136.67 43.96c.14-.1.28-.24.47-.22 2.83-.01 5.66-.01 8.49-.01 0 .87.01 1.73-.01 2.6.01.26-.37.46-.52.19-.16-.53-.3-1.1-.71-1.5-.23-.23-.56-.34-.87-.39-1.03-.2-2.08-.24-3.12-.36v5.2c.74-.01 1.48.06 2.21-.04.51-.08.9-.51 1.02-1 .05-.25.25-.41.42-.58.1.22.24.43.23.68.02.93.02 1.87 0 2.8 0 .21-.15.38-.25.56-.12-.16-.28-.3-.32-.5-.06-.32-.18-.66-.43-.88-.26-.23-.62-.3-.96-.31-.64-.02-1.29 0-1.93 0 0 1.45-.03 2.91.02 4.36-.01.37.25.72.57.87 1.12.34 2.42.43 3.47-.17.51-.26.77-.78 1.05-1.25.2-.35.44-.66.68-.98l.23.13c-.07.94-.1 1.88-.25 2.82-.14.22-.46.27-.7.3-2.2.01-4.4.01-6.59 0-.8-.02-1.6.05-2.39-.09.2-.16.38-.38.65-.45.37-.13.82-.3.92-.73.13-.55.06-1.12.08-1.68.01-2.51 0-5.02 0-7.53 0-.41-.03-.85-.31-1.18-.19-.22-.47-.32-.75-.37-.19 0-.29-.18-.4-.29zM88.26 43.97l.08-.19h8.88v2.81l-.14.13c-.16-.16-.37-.31-.42-.55-.13-.5-.4-.97-.82-1.28-.47-.35-1.06-.47-1.63-.49-.72-.03-1.43 0-2.15 0v5.1c.57 0 1.14.02 1.71-.01.4-.02.83-.12 1.13-.41.22-.2.33-.49.4-.77.04-.23.24-.37.39-.54l.23.12c0 1.2.01 2.39-.01 3.59.01.18-.16.29-.25.41-.42-.26-.37-.8-.62-1.18-.16-.31-.49-.46-.82-.5-.73-.09-1.46-.05-2.19-.05 0 1.44-.03 2.88.02 4.32-.01.46.34.93.8 1.01.81.22 1.69.31 2.51.08.56-.16 1.12-.43 1.43-.94.33-.54.65-1.1 1.05-1.6l.25.12-.26 3.06c-3.16-.01-6.32.01-9.48-.01l-.08-.18 1.15-.56c.25-.21.35-.54.35-.86.02-3.06.02-6.12 0-9.17 0-.32-.09-.66-.33-.88-.18-.17-.43-.25-.67-.31-.2-.01-.35-.16-.51-.27z"/></svg>