<svg xmlns="http://www.w3.org/2000/svg" width="160" height="100" viewBox="0 0 160 100"><path fill="#010101" d="M80.12 1.67c.28.49.27 1.07.41 1.59.19.7.45 1.39.81 2.03.56.92 1.18 1.84 2.06 2.48.12.1.39.27.16.43l-.32.38-.02.04c-1.32 1.66-2.22 3.66-2.56 5.75-.26 1.51-.3 3.06-.19 4.59.23-1.19.5-2.38.96-3.5.23-.54.49-1.07.74-1.6.9-1.64 2.04-3.17 3.44-4.41.21-.18.42-.37.62-.56h.18c-.17 1.43.62 2.74 1.52 3.78.57.62 1.24 1.15 2.03 1.46l.03.01.37.18c-.02-.41.03-.83.27-1.17l.45-.21.01-.1c.23.05.46.1.7.14l.39.39c.22.49.03 1.07-.42 1.37-.5.43-1.18.29-1.78.28v-.09l-.5-.02.01-.07-.43-.13-.51-.19-.36-.14-.46-.18c-.3-.07-.6-.13-.9-.21-.52-.05-1.05-.07-1.56.02l-.82.21-.03.03-.28.19-.1.01-.43.28-.03.03c-.58.45-1.07 1.02-1.38 1.69l-1.06 2.63-.5.51c-.3.17-.62.14-.91-.01-.18-.16-.35-.32-.52-.49-.43-.78-.56-1.69-.98-2.48-.34-.76-.92-1.38-1.54-1.92l-.12-.01-.4-.27-.47-.21-.11-.02c-.23-.06-.46-.1-.69-.14v-.06c-.41-.01-.82 0-1.23 0l.02.08c-.25.02-.5.04-.75.05l.01.06c-.27.06-.54.14-.8.24l-.6.26-.73.24-.5.13c-.49.04-1.01.13-1.47-.08l-.15-.01c-.36-.28-.77-.67-.7-1.18.02-.31.27-.53.46-.75.39-.07.88-.15 1.17.2.29.29.31.71.27 1.1.29-.1.59-.2.88-.31l.39-.3.16.02v-.14h.1c.5-.41.97-.86 1.36-1.38.74-.97 1.22-2.17 1.11-3.41l.56.51.05-.02c2 1.78 3.57 4.04 4.53 6.55.38 1.03.65 2.09.84 3.17.27-3.37-.31-6.97-2.35-9.75-.29-.41-.6-.8-.91-1.2 1.58-1.18 2.66-2.94 3.16-4.83.13-.54.15-1.07.34-1.56zM103.17 11.75c.13.67-.05 1.42.37 2.02.53.73 1.11 1.41 1.7 2.09.37.46.75.97.8 1.58.1.71-.31 1.36-.32 2.05-.01.38.29.7.25 1.08-.28-.3-.5-.67-.86-.89-.29-.17-.56-.36-.84-.55-.46-.42-.94-.86-1.15-1.46-.27-.91-.27-1.87-.29-2.81 0-1.04.04-2.1.34-3.11zM57.01 11.87c.08.2.14.42.18.63.22 1.4.27 2.83.12 4.25-.07.49-.13 1-.39 1.43-.43.66-1.02 1.2-1.72 1.56-.26.16-.48.37-.65.62l-.33.32c.06-.46.39-.9.24-1.38-.18-.76-.53-1.6-.15-2.36.63-1.21 1.75-2.07 2.42-3.25.31-.56.19-1.21.28-1.82zM63.29 15.92c.47-.31.77-.8 1.05-1.28l.04.31c-.46.97-1 1.91-1.68 2.74-.49.69-1.04 1.36-1.73 1.85l-.6.22-.5.15c-.63.06-1.27.05-1.91-.03l.01.07-.17-.04-.39.31c-.43.3-.84.64-1.26.97-1.67 1.34-3.21 2.84-4.65 4.41-2.3 2.57-4.26 5.44-5.82 8.52-.58 1.17-1.13 2.34-1.61 3.55-3.48 8.82-3.71 18.86-.71 27.85.48 1.41 1.04 2.79 1.65 4.14.17.36.34.73.54 1.08l.26.49c1.4 2.76 3.18 5.32 5.23 7.64.45.49.89 1 1.35 1.48.89.86 1.76 1.76 2.73 2.53 1.02.89 2.12 1.69 3.23 2.46l.04.03c.57.36 1.13.74 1.71 1.08.41.25.83.5 1.25.73.53.29 1.07.56 1.61.84l.46.22.48.24.41.18.86.36.47.19c.21.07.41.15.62.24l1.71.61.27.07.37.14c.3.08.6.17.9.24v.04l.87.19v.05c.22.03.44.07.66.13l.43.06v.08l.49.02v.09l.73.05-.01.07.58.05c.24.06.48.1.73.13.3.07.61.08.91.1v.08l.69.04c.45.08.9.12 1.36.12.48.08.96.1 1.44.14.26.07.52.1.78.13v.07l.5.02.01.07c.22.03.45.06.66.15.18-.06.36-.11.55-.15v-.06l.51-.03-.04-.07c.48-.07.95-.15 1.42-.25.52-.04 1.05-.04 1.57-.14l.83-.04v-.07l.69-.06c.26-.08.53-.1.8-.12l-.02-.06.58-.05c.42-.11.85-.21 1.28-.25l-.01-.06.43-.06c.36-.11.74-.18 1.1-.31l.43-.07.01-.05c.27-.06.53-.14.8-.22l.38-.11.46-.16.63-.2.47-.19 1.14-.41.46-.21c.34-.13.67-.28 1-.42.54-.23 1.06-.5 1.58-.77l.74-.38.48-.26c.47-.25.94-.52 1.39-.8.35-.23.71-.44 1.06-.68l.33-.17.02-.05c.36-.22.7-.46 1.03-.7l.48-.37.49-.36c1.11-.85 2.18-1.75 3.19-2.72 1.09-1.08 2.18-2.16 3.14-3.36.96-1.11 1.77-2.33 2.64-3.5.33-.54.68-1.06.98-1.62.4-.69.8-1.39 1.18-2.1 2.2-4.31 3.64-9.02 4.15-13.84.89-7.7-.46-15.65-3.94-22.58-1.24-2.5-2.75-4.88-4.51-7.06-.67-.87-1.4-1.69-2.15-2.49-.3-.32-.59-.64-.91-.95l-.12-.12c-1.45-1.41-3.01-2.7-4.63-3.9-.7 0-1.4.07-2.1 0l-.39-.13-.58-.2-.44-.3-.01-.05c-1.3-1.19-2.24-2.71-3.05-4.26l.03-.27.47.65c.18.24.4.44.64.61l.52.19.45.16c.2.04.4.08.61.14l.4.08c.34.11.68.2 1.03.24l.01.03c.23.05.45.12.68.19.38.19.7.46.95.8.27.47.35 1.05.72 1.46.28.16.54.35.8.55.35.26.71.52 1.06.8 1.53 1.24 3.01 2.54 4.33 4.01.77.79 1.45 1.65 2.16 2.49.14.19.29.38.44.56l.48.63c1.42 2.02 2.77 4.11 3.8 6.36 2.75 5.67 4.12 12 4.01 18.3.01 1.97-.19 3.94-.5 5.89-.65 4.27-2.01 8.43-4 12.26-1.33 2.64-3 5.1-4.9 7.37-1.46 1.76-3.09 3.37-4.82 4.87-.23.19-.45.38-.68.55-1.07.85-2.18 1.67-3.33 2.41-.4.26-.82.51-1.23.77l-.63.36-.85.45c-.4.23-.81.44-1.22.64l-.39.19c-.31.15-.63.3-.95.44l-.86.36-.62.25c-.2.08-.41.17-.61.27l-.32.04v.08l-.57.17-.46.19-.75.22c-.28.08-.56.16-.84.25-.26.07-.52.15-.78.21l-.58.16c-.33.06-.66.15-.99.24-.37.08-.74.15-1.12.22-.22.05-.45.08-.67.11v.06c-.3.02-.61.05-.9.13l-.83.06.01.07c-.42.01-.85.02-1.26.12-.33.01-.66.05-.99.12l-.7.05.02.07-.85.06.28.17.26.07.45.18.4.11.6.28.13.01.49.22 1.25.53c.58.29 1.17.56 1.74.88l.02.11.23-.05-.03.14.31.14-.64-.14.01-.05c-.17-.06-.33-.12-.48-.19-.27-.14-.55-.26-.83-.37l-.45-.19-.53-.19c-.2-.09-.41-.17-.62-.25l-.46-.19-.27-.05-.37-.15-.98-.32-.16.02v-.1c-.44-.05-.84-.23-1.28-.3-.27.01-.53.12-.79.18l-.72.24-.74.25-.45.16c-.26.08-.52.18-.78.29l-.08.01-.64.27-.47.19c-.29.11-.57.24-.85.38l-.4.17c-.22.1-.44.2-.66.28v.11l-.22-.07v.14l-.36-.02c.18-.09.36-.2.53-.3.46-.29.96-.5 1.44-.76.31-.15.62-.3.94-.43l.03-.09.16.01c.24-.13.49-.24.74-.36l.13-.01.48-.25h.12l.51-.24h.11l.48-.23.33-.03-.02-.2-.86-.06v-.06c-.44-.03-.88-.06-1.33-.07v-.07l-1.23-.05.01-.07c-.35-.01-.7-.02-1.05-.1-.29-.04-.58-.06-.86-.12-.26-.04-.53-.06-.79-.08l.01-.07-.65-.03.03-.08-.5-.04v-.07c-.39-.04-.78-.13-1.16-.24l-.45-.05.01-.06c-.35-.05-.69-.15-1.02-.25l-.38-.12-.38-.08c-.25-.09-.49-.17-.74-.24l-.45-.16-.38-.11-.52-.19-.45-.2c-.34-.11-.68-.24-1-.39l-.12-.02c-.29-.14-.58-.27-.88-.38l-.07-.07c-.3-.11-.59-.24-.88-.38l-.38-.18c-.48-.28-.98-.52-1.48-.77l-.48-.3h-.16l-.01-.09c-.27-.14-.54-.3-.81-.45-.25-.17-.49-.33-.75-.49l-.74-.48c-.99-.64-1.93-1.35-2.85-2.08-.85-.74-1.74-1.44-2.53-2.25-.94-.87-1.77-1.82-2.62-2.77-.74-.94-1.53-1.84-2.2-2.84-1.6-2.26-2.96-4.69-4.04-7.24l-.25-.6c-2.59-6.3-3.48-13.25-2.79-20.01.59-5.32 2.17-10.53 4.76-15.22 1.66-3.08 3.73-5.94 6.14-8.47l.24-.23c.4-.42.81-.84 1.23-1.24.82-.78 1.67-1.52 2.55-2.22l.56-.43c.32-.25.64-.51.97-.75.22-.15.42-.31.63-.47.16-.44.32-.89.54-1.31l.42-.46.2-.07v-.06c.43-.18.87-.37 1.34-.44v-.06l.6-.04v-.07c.33-.06.66-.15 1-.19l-.02-.04c.24-.05.47-.12.71-.19.13-.08.28-.14.43-.21zM108.69 15.31c.08.51-.01 1.04.09 1.55.08.39.31.73.54 1.05.65.86 1.4 1.63 2.03 2.5.34.48.54 1.08.47 1.67-.06.54-.27 1.05-.35 1.59-.07.44.14.84.3 1.23l-.15.11c-.21-.31-.45-.59-.73-.84-.26-.14-.52-.3-.77-.45-.52-.41-1.01-.88-1.37-1.45-.32-.48-.35-1.08-.4-1.64-.12-.98-.09-1.98-.07-2.96.08-.79.1-1.61.41-2.36zM51.52 15.48c.31 1.28.39 2.6.4 3.91-.1 1.11 0 2.32-.64 3.3-.4.47-.83.92-1.32 1.29l-.11.02c-.17.11-.33.22-.51.32-.32.21-.54.53-.75.85h-.22c.07-.18.15-.35.23-.52.36-1.05-.52-2.02-.27-3.07.07-.3.2-.59.34-.87.65-.9 1.4-1.72 2.1-2.58.49-.6.84-1.47.47-2.22-.01-.17.17-.3.28-.43zM114.71 20.76c.3-.72.59-1.46 1.06-2.09.01.46-.21.88-.31 1.32-.15.53-.11 1.1.06 1.62.42 1.2.98 2.35 1.38 3.56.25.75.23 1.6-.15 2.3-.31.62-.83 1.14-.98 1.83-.07.36 0 .73.05 1.09l-.27-.03c-.11-.44-.22-.91-.56-1.23-.97-1.06-1.84-2.47-1.58-3.97.26-1.51.71-2.99 1.3-4.4zM44.25 18.88c.28.3.5.65.67 1.02.68 1.45 1.2 2.97 1.62 4.52.13.6.26 1.21.25 1.82-.19 1.27-.9 2.41-1.78 3.33-.25.38-.26.93-.66 1.18 0-.45.13-.91-.03-1.35-.29-.84-1.02-1.45-1.22-2.33-.3-1.14.33-2.22.7-3.26.29-.85.71-1.67.89-2.55.16-.84-.35-1.58-.44-2.38zM79.73 19.97c.37-.06.81-.13 1.09.19.57.45.31 1.47-.38 1.64-.24.04-.47-.01-.7-.04-.3-.28-.61-.68-.47-1.12.02-.29.27-.47.46-.67zM99.82 21.8c.83-.02 1.67-.13 2.48.05.16.09.32.18.49.26.26.17.52.36.76.55.28.3.57.59.81.92.16.14.33.26.5.39h.13l.23.19-.2.19c-.43-.3-1.05-.2-1.51-.01l-.11.03-.63.27c-.37.1-.76.09-1.14.07v-.07l-.42-.09-.38-.23-.49-.29c-.32-.21-.64-.4-.96-.6-.28-.18-.56-.35-.84-.52l-.44-.18-.01-.06c-.59-.05-1.17.01-1.76.02l.34-.22.39-.11.54-.1-.01-.07.62-.05-.01-.07.56-.07c.34-.09.7-.12 1.06-.2zM58.06 21.94c1.16-.15 2.33-.02 3.48.11v.06l.69.06.49.14.54.11v.05c.25.06.55.05.71.31-.75-.02-1.56-.18-2.24.25l-.77.5-.67.42-.29.19c-.39.26-.82.44-1.23.66-.36.07-.73.06-1.1.03l-.47-.19-.55-.2v-.08c-.51-.04-1.05-.12-1.54.11l.08-.28c.71-.2 1-.91 1.52-1.37.26-.24.55-.44.85-.63l.5-.25zM83.64 22.76c.26.01.51.02.77.06l.74.15c.22.04.45.06.67.08l-.01.07.62.04v.08l.45.04.58.2.45.05-.01.08.33.05c.31.11.62.2.94.29l.39.15.51.17.47.18.61.25.62.27.12.03.61.31c.33.15.65.33.98.5l.63.34c.21.12.43.23.65.34l.01.04c.46.26.9.55 1.32.86l.11.03c.71.55 1.45 1.05 2.12 1.64l.02.04c2.67 2.24 4.9 5 6.55 8.07 2.39 4.42 3.51 9.52 3.2 14.54-.29 5.55-2.35 10.99-5.79 15.34-.99 1.25-2.05 2.45-3.26 3.49-.94.94-2.06 1.67-3.1 2.49l-.1.01c-.47.36-.99.64-1.48.97l-.11.02-.26.16c-.17.1-.33.21-.49.32l-.12.02-.49.28c-.26.12-.52.24-.78.35l-.04.05-.76.31-.26.12-.46.2-.52.17-.47.2-.52.18-.57.18-.29.07-1.07.32-.44.04.01.09-.5.02v.1l-.51.02.02.08c-.3.02-.6.05-.89.13l-.7.05v.08c-.39.01-.77.04-1.14.13-.5.02-1 .01-1.49.11-1.01.03-2.01.01-3.02 0l-.01-.07-1.47-.05.01-.07-.99-.05.01-.08c-.27-.02-.53-.04-.79-.07-.23-.06-.46-.09-.69-.12l.03-.06-.56-.06c-.22-.08-.44-.11-.67-.14v-.04l-.45-.13-.44-.06.01-.05c-.31-.06-.61-.15-.9-.25l-.28-.07-.45-.19-.89-.31-.47-.2-1-.41-.6-.29-.39-.19-.59-.3-.49-.3-.17.01-.01-.14-.14.04-.03-.09-.82-.46-.57-.37c-.86-.61-1.74-1.2-2.53-1.9l-.13-.15h-.06c-.63-.6-1.34-1.13-1.89-1.81l-.26-.24-.11-.13c-.67-.69-1.25-1.44-1.85-2.19-.23-.31-.45-.63-.67-.94l-.48-.74c-.64-.91-1.16-1.9-1.65-2.9-1.2-2.37-1.96-4.95-2.39-7.56-.23-1.3-.35-2.61-.33-3.93l-.05-.07c.07-1.38.03-2.77.3-4.13.34-2.7 1.13-5.34 2.27-7.8.19-.36.37-.71.54-1.08.34-.67.76-1.29 1.11-1.95.92-1.46 1.98-2.83 3.13-4.11l.11-.12c1.02-1.11 2.16-2.11 3.33-3.06l.41-.3c.52-.39 1.04-.76 1.57-1.12.28-.18.57-.36.86-.53l.2-.14c.27-.14.53-.29.79-.44l.59-.3.49-.25.47-.24.53-.24.12-.01.48-.25h.11c.21-.1.42-.19.63-.27l.38-.13c.27-.1.55-.2.82-.31l.29-.06c.28-.1.56-.18.84-.27l.43-.09-.01-.08.5-.03-.01-.07.55-.09.72-.18.56-.05.01-.08.7-.01-.05.59c-.43.03-.84.16-1.27.2l.01.05c-.22.03-.44.06-.66.12l-.55.07v.08l-.38.01.01.08-.43.06-.44.13v.03c-.36.07-.7.2-1.05.32l-.74.26-.71.28c-.29.13-.57.26-.85.4l-.75.33c-.26.13-.51.25-.75.4l-.11.03-.5.27c-.25.14-.49.28-.73.45h-.15l-.01.1c-.37.21-.72.45-1.07.67-.32.21-.63.44-.95.67l-.41.3c-1.26.99-2.44 2.06-3.52 3.24-2.22 2.44-4.04 5.27-5.25 8.34-2.07 5.15-2.45 10.95-1.13 16.34.49 2.12 1.32 4.16 2.3 6.1 1.49 2.79 3.46 5.33 5.8 7.46.3.23.58.48.86.73.92.78 1.92 1.47 2.93 2.12l.61.37.37.2.51.31.15.01.03.09.68.31.72.38.71.31c.21.08.41.16.61.25l.56.19v.07l.33.04.46.2.69.18-.01.04.54.13.28.06.37.13.49.12.61.13.61.12c.26.06.52.1.79.12l-.01.06c.27.01.55.04.82.06.37.09.76.1 1.14.11l.01.07c1.64.03 3.29.14 4.92-.06.37-.02.73-.04 1.1-.05l-.05-.07c.3-.01.59-.03.89-.05l-.01-.08.74-.05-.02-.08.63-.04-.01-.06c.37-.04.73-.14 1.1-.2l-.01-.05c.18-.03.36-.05.54-.1.34-.13.69-.23 1.04-.33l.58-.2.51-.18.47-.17.63-.26.11-.02.75-.34.11-.02.7-.35c.31-.15.62-.31.91-.49l.11-.04c.78-.45 1.58-.89 2.31-1.43l.3-.18c3.11-2.21 5.8-5.03 7.76-8.31 2.49-4.18 3.88-9.05 3.81-13.92.04-6.68-2.64-13.28-7.16-18.18-.48-.54-1-1.04-1.54-1.53l-.91-.81c-.55-.43-1.08-.89-1.64-1.3l-.16-.09c-.43-.3-.86-.6-1.31-.87l-.5-.35h-.09c-.24-.16-.5-.3-.75-.45l-.62-.33-.84-.41-.4-.17-.7-.33c-.21-.08-.42-.17-.62-.26l-.54-.18-.01-.04-1.05-.33-.46-.15-.77-.21-.59-.16c-.34-.06-.67-.14-1-.21-.22-.06-.45-.08-.68-.11l.01-.05c-.5-.04-.99-.18-1.5-.19l-.07-.58zM121.64 24.23l.11.05c-.3.5-.64.98-.93 1.49-.28.52-.35 1.13-.31 1.71l.36 4.18c.05.73-.18 1.45-.55 2.07-.5.63-1.17 1.08-1.7 1.67h-.07l.01.08c-.34.43-.44.98-.49 1.52l-.25.02c.01-.7-.08-1.41-.45-2.02-.47-1.04-.69-2.2-.61-3.34.19-1.05.77-1.98 1.31-2.89 1.01-1.64 2.14-3.24 3.57-4.54zM38.29 24.48c.78.59 1.39 1.36 2 2.11.6.79 1.22 1.58 1.73 2.43.52.86 1.06 1.73 1.34 2.7.19 1.33-.1 2.7-.72 3.88-.3.52-.22 1.14-.27 1.71l-.23.06c-.07-.28-.12-.57-.14-.86-.28-.76-.95-1.26-1.55-1.75-.35-.28-.59-.65-.85-1.01-.66-1.31-.29-2.79-.2-4.18.06-1.22.39-2.54-.26-3.67-.3-.46-.72-.87-.85-1.42zM101.44 25.86c.77-.01 1.55-.08 2.32.06.59.02 1.16.14 1.75.18.28.06.56.1.84.17l.49.09.75.23c1.29.45 2.11 1.7 2.59 2.92.15.49.59.78.91 1.15l-.2.21-.15-.2-.03-.03-.32-.2c-.14-.05-.29-.09-.43-.12l.02-.06c-.38 0-.76 0-1.13.1-.51.04-1.02.06-1.52 0-.2-.09-.4-.18-.61-.26-.61-.45-1.12-1.03-1.61-1.61l-.13-.12c-.63-.65-1.19-1.39-1.93-1.93l-.12-.01c-.14-.06-.29-.11-.44-.15v-.05l-.59-.04c-.28-.07-.58-.11-.86-.15l.4-.18zM57.11 26.05v-.07c.54-.01 1.09-.01 1.63 0l-.02.32-.87.06.01.06c-.16.04-.31.09-.46.15l-.12.02c-.69.41-1.14 1.09-1.7 1.65-.44.5-.88 1.01-1.34 1.49-.2.18-.39.35-.6.52l-.39.2c-.19.07-.38.13-.58.19-.37 0-.73 0-1.1-.01v-.08c-.49-.03-.98-.03-1.48-.02v.06l-.42.18c-.16.16-.36.28-.59.22.22-.31.53-.55.75-.85.21-.42.37-.86.59-1.27.27-.52.66-.97 1.07-1.39.31-.33.71-.53 1.13-.68l.61-.18.49-.13c.41-.07.83-.14 1.23-.24.36-.02.72-.06 1.08-.14.37-.04.73-.06 1.08-.06zM105.87 31.37c.26-.01.52-.01.77 0v.09l.45.04.57.2c.26.07.51.15.76.25l.31.05-.01.06.45.15.11.02.47.23c.29.11.58.23.87.35.22.09.43.19.64.29l.75.38c.31.18.63.35.94.54 1.39.94 1.94 2.68 2.08 4.27.03.58.54.98.6 1.55-.47-.22-.73-.72-1.2-.96l-.45-.05.02-.08-.65-.03.02-.08c-.29-.01-.58-.03-.86-.05v-.07l-.54-.08c-.29-.16-.58-.34-.86-.52-.58-.64-1.02-1.39-1.37-2.17-.35-.65-.67-1.31-.99-1.96-.25-.5-.56-.97-.95-1.37-.38-.27-.79-.48-1.22-.63-.23-.14-.48-.26-.71-.42zM53.5 31.64c.22-.03.44-.06.66-.07l.08-.16.08.31-.16-.04v.1l-.44.13-.6.3h-.12c-.5.36-.99.79-1.28 1.35-.33.62-.63 1.25-.94 1.88-.17.33-.33.65-.51.98-.42.89-.98 1.82-1.93 2.21l-.49.18-.46.04.02.08-.76.03v.07c-.42 0-.8.14-1.17.32-.27.2-.49.45-.68.73l-.31-.01.36-.71.2-.3c.2-1.18.33-2.4.96-3.45.26-.53.7-.93 1.17-1.28.33-.21.66-.42 1-.61l.73-.36 1.13-.54.1-.01.66-.28.03-.09.16.02.4-.17.45-.16.38-.15.32-.03-.01-.06c.36-.06.67-.15.97-.25zM123.27 34.46c1.05-.95 2.16-1.86 3.44-2.49-.14.2-.3.4-.46.58-.45.33-.81.75-1.13 1.21-.39.81-.45 1.72-.59 2.59-.16 1.01-.26 2.03-.51 3.02l-.22.54c-.29.62-.85 1.02-1.39 1.4l-.16-.01-.01.09-.45.26h-.15l-.05.08c-.24.14-.47.29-.7.45-.33.34-.55.76-.66 1.22l-.26-.01c.03-.22.06-.44.11-.66.08-.37.1-.76.01-1.13-.28-1.34-.3-2.8.33-4.04.68-.99 1.5-1.86 2.37-2.68l.48-.42zM33.39 32.26l.04.24.15-.06.01.08c.41.2.79.45 1.16.7.96.68 1.85 1.45 2.73 2.24l.01.02c.35.29.66.61.99.93v.06c.56.59 1.16 1.19 1.47 1.97.4 1.21.34 2.52.09 3.76-.11.51.06 1.01.15 1.51l-.19.2c-.14-.33-.27-.66-.44-.98-.31-.32-.65-.62-1.07-.81l-.04-.04c-.27-.12-.53-.25-.78-.4l-.12-.03c-.19-.15-.38-.3-.58-.44-1.11-.94-1.12-2.48-1.37-3.79-.18-.99-.25-2.01-.59-2.96-.23-.57-.67-1.02-1.15-1.38l-.03-.07-.5-.42.06-.33zM80.71 32.83c1.16-.04 2.32-.04 3.48.01.38.07.77.12 1.16.12l-.02.07.57.07.6.15.43.1v.04c.23.05.46.12.68.19l.46.21c1.67.67 3.05 1.93 3.97 3.46 1.44 2.25 1.83 5.03 1.56 7.66-.2 1.92-.94 3.8-2.22 5.27-.3.35-.64.67-.98.97l-.61.49c-.32.23-.64.45-.97.66-.25.12-.49.24-.73.37l-.74.33-.48.16c-.29.08-.58.16-.87.26l-.56.06.01.07c-.34.02-.68.05-1.02.06l.27.06c-1.19.06-2.38.06-3.56.01v-.07l-.97-.05v-.08l-.63-.03.03-.08-.53-.06c-.19-.06-.38-.1-.57-.14l.01-.03-.47-.15-.15.01-.06-.2-.17.22c.07 2.67-.1 5.34.15 8 .24 1.94.76 4.1 2.46 5.28l.53.3.47.23.09.01c.34.12.68.23 1.04.26l.38.11v.52c-.31-.01-.62-.03-.93-.05-.49-.12-.99-.1-1.49-.12-1.75-.19-3.51-.1-5.27-.12-.03-6.76-.03-13.52-.07-20.28.03-1.72-.07-3.44-.05-5.16-.02-2.92-.03-5.84-.03-8.76.83-.04 1.67.03 2.49-.11l1.67-.05-.01-.08c.54.01 1.08-.05 1.62-.15l.1.3-.07-.32zm.33 2.3c-.53-.01-1.05.13-1.56.28l-.48.19c-.45.19-.74.61-.86 1.07-.37 1.28-.47 2.61-.53 3.93-.05 3.28 0 6.56 0 9.84l.75.26c.22.06.44.13.65.21l.53.11v.06l.62.04v.08c.27.01.54.03.81.05.95.14 1.94.14 2.89 0 .23-.02.47-.04.71-.05l-.01-.06c.53-.02 1.03-.19 1.52-.37.21-.07.42-.15.62-.24.51-.25.97-.59 1.43-.93l.03-.04.51-.48c.76-.88 1.36-1.9 1.69-3.01.43-1.23.43-2.56.36-3.85-.2-2.26-1.29-4.48-3.15-5.84h-.17v-.13l-.14.03-.02-.14-.15.01-.5-.3-.62-.23-.39-.13c-.38-.1-.76-.2-1.15-.24l.01-.06c-.27-.01-.54-.03-.81-.05-.86-.17-1.74-.05-2.6-.07l.01.06zM65.09 32.9c.74 0 1.49.05 2.23.06v.07c.75.02 1.5.03 2.25.06.96.13 1.92.07 2.89.1.04 8.15.16 16.31.16 24.46.08 3.25.04 6.5.05 9.75l-1.83.01v.08c-.72 0-1.44.03-2.16.05-.54.1-1.1.11-1.65.12l.01.07c-.32.02-.63.04-.94.05l-.67.12c-.01-.21-.01-.42 0-.63l.22-.01.61-.2.68-.29.05-.05c.88-.52 1.62-1.3 2.09-2.21.7-1.66.82-3.48.86-5.26.01-5.15-.05-10.31-.08-15.46-.05-2.22-.03-4.47-.64-6.62-.27-.98-.82-1.89-1.6-2.55l-.59-.43-.38-.2-.61-.29c-.23-.07-.46-.14-.69-.19v-.08l-.22.03c-.03-.14-.04-.42-.04-.56zM92.66 34.35c.28.1.55.23.82.34.25.14.5.26.76.38l.02.08.14-.02.03.07c1.46.82 2.71 2.01 3.57 3.45 1.02 1.9 1.26 4.12.95 6.23-.18 1.17-.59 2.29-1.22 3.29-.64 1.01-1.49 1.86-2.45 2.57-.4.27-.81.54-1.23.76l-.03.03-.45.26-.12.01-.33.25-.13.02-.44.15c.42-.46.83-.92 1.2-1.42 2.87-3.82 3.01-9.26.91-13.47-.52-1.06-1.28-2.01-2-2.98zM109.99 39.37l.35-.05.01.09.45.17c.43.24.85.5 1.27.76l.03.04c.23.13.45.28.67.43.83.64 1.7 1.24 2.45 1.98.59.59 1.25 1.16 1.59 1.95.36 1.13.41 2.34.21 3.51-.12.55.16 1.07.23 1.6l-.25.02c-.14-.48-.44-.88-.82-1.2l-.38-.19c-.33-.15-.66-.3-.98-.46l-.12-.01c-.24-.15-.48-.3-.73-.44-.49-.41-.83-.97-1-1.59-.41-1.48-.59-3.02-1.02-4.49-.23-.79-.88-1.34-1.54-1.77l-.25-.26-.17-.09zM49.58 39.87l.55-.32-.01.23c-.28.22-.55.46-.84.67-.48.41-.88.94-1.03 1.56-.38 1.47-.53 2.99-.94 4.45-.21.76-.76 1.36-1.41 1.78l-.39.18c-.32.13-.64.28-.96.43-.23.13-.44.27-.65.42l-.26.27c-.12.21-.23.43-.33.65l-.31.19c.08-.61.36-1.2.22-1.82-.2-1.07-.17-2.19.17-3.23.23-.85.91-1.45 1.49-2.05.93-.87 1.93-1.67 2.97-2.4l.42-.26.02-.03.42-.29.15.01.03-.16.21.03.01-.1.47-.21zM128.84 40.59l.44-.13.29.03-.24.06.02.14-.15-.03-.01.09c-.23.12-.45.25-.67.39l-.12.02-.72.57c-.83 1.01-1.11 2.33-1.61 3.52-.37.93-.66 1.95-1.43 2.64l-.5.36-.39.19-.47.17c-.27.06-.54.14-.82.19l-.01.03-.56.18-.26.12c-.35.26-.65.58-.84.98l-.26-.01c.12-.48.44-.91.46-1.42.01-.74.04-1.48.26-2.19.23-.76.5-1.56 1.09-2.12.69-.65 1.48-1.18 2.28-1.68l.04-.08.13.02.01-.14.17.02c.24-.17.49-.31.75-.46l.61-.33.5-.25.51-.24.02-.05.44-.19c.33-.15.67-.29 1.02-.38l.02-.02zM30.68 40.81l.06.18c.23.05.46.12.69.19l.47.18c.42.17.83.38 1.24.57.2.11.4.21.59.33l.13.02c.16.1.32.19.49.28l.41.22.45.26.8.47.03.05c.74.47 1.47.98 2.05 1.64.77 1.08 1.02 2.43 1.05 3.73-.04.6.33 1.1.49 1.66l-.26.01c-.2-.45-.55-.84-1-1.05l-.05-.09-.16.01-.48-.2c-.3-.05-.58-.13-.87-.21l-.64-.22c-.36-.21-.69-.46-.99-.75l-.31-.4c-.3-.44-.47-.95-.67-1.44-.37-.9-.72-1.81-1.08-2.71-.27-.71-.71-1.36-1.34-1.8l-.12.01-.25-.2c-.28-.14-.54-.3-.81-.46.03-.05.07-.2.08-.28zM111.88 47.44c.85.58 1.49 1.39 2.18 2.14.74.9 1.45 1.83 2.07 2.82.35.54.66 1.1.92 1.68.18.44.28.9.25 1.37.04 1.28-.42 2.51-.93 3.67 0 .43-.02.86-.04 1.29l-.23.02-.08-.28c-.04-1-.89-1.67-1.63-2.21-.75-.56-1.33-1.41-1.4-2.36-.07-1.85.26-3.68.18-5.53-.05-.84-.65-1.49-1.11-2.14-.1-.14-.14-.32-.18-.47zM47.92 48.19c.19-.12.37-.25.57-.35-.36.77-1.06 1.36-1.26 2.21-.19.81-.04 1.64-.02 2.46.09.9.12 1.8.2 2.7.07.91-.18 1.85-.78 2.56-.6.75-1.59 1.12-2.07 1.99-.21.35-.23.77-.31 1.16l-.25-.01c-.01-.63.03-1.3-.27-1.87-.57-1.18-.85-2.5-.69-3.81.25-1.04.87-1.93 1.42-2.82l.25-.37c.7-.97 1.42-1.94 2.24-2.8l-.01-.13.13.05.01-.09c.27-.28.53-.58.83-.83l.01-.05zM130.8 49.64c.48-.02.95-.06 1.43-.02-.17.17-.4.22-.62.31l-.43.09v.05l-.54.13-.41.16c-.87.46-1.4 1.32-1.98 2.08-.89 1.14-1.61 2.45-2.77 3.36l-.6.32c-.23.07-.46.13-.7.16l.01.06c-.78.02-1.55.01-2.33.04v.05c-.24.05-.46.13-.69.2-.32.2-.53.6-.94.63.15-.63.8-.99.94-1.62.4-1.43 1.11-2.84 2.3-3.78l.41-.24.39-.18.59-.26.51-.2h.13l.48-.22.43-.05-.01-.06c.31-.06.62-.15.92-.25.31-.08.61-.16.93-.2l.01-.06.5-.03-.01-.08.49-.04-.01-.07c.23-.02.46-.04.68-.11.31-.04.62-.07.93-.07l-.04-.1zM27.77 50.24c.55-.04 1.1.01 1.66.02l-.03.07c.27.01.54.03.81.06.22.06.45.1.68.13v.04c.22.03.44.06.66.13l.41.07.6.14.53.12.01.04c.27.05.54.13.8.2.54.17 1.08.33 1.59.56l.11.01.51.26h.09c1.1.62 1.92 1.67 2.43 2.81.33.67.37 1.46.85 2.06l.52.58-.07.28-.14-.02c-.19-.19-.38-.38-.59-.55l-.27-.14-.15-.04c-.18-.05-.35-.1-.53-.13v-.05c-1-.04-2.04.12-3.01-.2l-.49-.3-.12-.02c-.75-.54-1.25-1.33-1.81-2.04l-1.17-1.53c-.49-.65-.97-1.35-1.71-1.74l-.04-.05-.43-.16-.5-.16-.5-.12c-.24-.1-.54-.09-.7-.33zM130.37 57.5c.48-.03.97-.05 1.45-.02-.13.15-.29.25-.48.29l-.58.16-.87.22c-1.01.38-1.69 1.26-2.31 2.1l-.72.99c-.89 1.1-1.58 2.4-2.75 3.24l-.34.19-.25.16-.12.01c-.96.39-2.02.21-3.03.26l.02.08-.64.03.03.06-.45.16-.12.02c-.28.2-.53.43-.76.69l-.24.02-.05-.27c.4-.51.89-.98 1.05-1.63.2-.72.48-1.42.82-2.09.44-.83 1.04-1.58 1.77-2.18l.62-.33.72-.32c.37-.15.75-.3 1.13-.42l.45-.18.38-.08.48-.17c.29-.06.57-.15.86-.23l1.01-.21.6-.17c.22-.03.45-.05.68-.07v-.07l.74-.05v-.07c.3-.03.6-.05.9-.12zM111.94 60.21c-.02-.84-.68-1.51-.74-2.33 1.3 1.46 2.08 3.28 2.9 5.03.38.96.76 1.93.92 2.95.12 1.13-.3 2.23-.79 3.22-.27.53-.68.97-.97 1.48-.16.42-.22.87-.35 1.3l-.26-.05c.04-.48.08-.98-.1-1.43-.25-.48-.6-.89-.95-1.29-.37-.45-.74-.92-.89-1.49-.15-.49-.14-1.02-.08-1.52.24-1.1.55-2.18.86-3.26.2-.87.56-1.71.45-2.61zM28.29 58.1c.67-.03 1.33.12 2 .11l-.01.07c.28.01.55.03.83.06.25.06.51.11.76.13v.07l.58.04c.41.12.83.23 1.25.27v.07l.49.04v.09l.5.03v.09l.34.04c.38.14.76.27 1.14.38v.06l.33.03.45.2c.21.08.42.16.62.25l.4.18c.24.13.48.28.71.43.75.7 1.36 1.54 1.81 2.46.28.58.47 1.19.65 1.8.15.56.64.92.95 1.38l.01.24-.2.11c-.32-.35-.69-.66-1.12-.85l-.44-.09.01-.06-2.83-.04.01-.06c-.22-.03-.45-.07-.67-.13-.38-.18-.76-.37-1.11-.61-.97-.89-1.67-2.01-2.48-3.04-.19-.25-.38-.51-.56-.76l-.61-.77c-.37-.45-.77-.88-1.25-1.22-.27-.12-.53-.23-.81-.32v-.04l-.54-.13c-.34-.08-.67-.17-1-.28h-.18l-.03-.23zM48.42 59.29c.23-.38.54-.7.83-1.04-.07.3-.16.59-.29.87-.24.51-.48 1.03-.52 1.6-.07.63.14 1.23.29 1.83.33 1.27.77 2.51 1.05 3.79.2.87.06 1.84-.46 2.58-.47.71-1.17 1.28-1.48 2.09-.16.41-.12.85-.13 1.28l-.21.14c-.19-.59-.22-1.27-.63-1.77-.8-1.03-1.38-2.25-1.54-3.55-.09-.81.22-1.59.44-2.35.67-1.92 1.57-3.75 2.65-5.47zM106.4 63.38l.16.18c.89.97 1.48 2.16 2.11 3.3.6 1.2 1.13 2.43 1.59 3.68.33.97.62 2.02.37 3.04-.2 1.18-.79 2.23-1.43 3.22l-.44.59c-.17.53-.25 1.08-.43 1.61l-.28-.26c.09-.51.07-1.05-.15-1.52-.28-.6-.74-1.07-1.16-1.57-.82-.89-1.14-2.15-.9-3.33.3-1.31.71-2.59 1.05-3.89.26-.97.61-2 .29-2.99-.19-.72-.69-1.32-.78-2.06zM54.06 63.77c-.08.66-.48 1.22-.68 1.84-.29.73-.23 1.55-.03 2.3l1.14 4.21c.3.93.34 1.99-.09 2.89-.45 1.02-1.42 1.69-1.88 2.71-.22.5-.18 1.06-.14 1.59l-.16-.01-.05.23c-.28-.66-.24-1.45-.72-2.02-.45-.56-.83-1.17-1.13-1.83-.13-.33-.26-.66-.35-1.01l-.04-.07c-.14-.65-.3-1.33-.17-2 .34-1.67 1.03-3.25 1.78-4.77.71-1.42 1.44-2.87 2.52-4.06zM124.47 67.16c1.71-.03 3.43-.09 5.12.17l.01.29c-.59.03-1.19.01-1.78.11-.42.06-.83.19-1.21.37l-.75.49-.13.12c-.41.37-.8.76-1.23 1.11-.27.22-.51.47-.76.71l-.29.23.01.04-.31.24-.11.12c-.86.77-1.75 1.6-2.91 1.87-.57.05-1.14.02-1.71-.01v-.08l-.44-.04c-.26-.07-.52-.11-.79-.14l-.01-.07-.96-.01-.01.06c-.44.04-.83.26-1.17.52l-.29-.01-.02-.23c.35-.35.77-.62 1.1-.99.45-.7.78-1.48 1.33-2.12.6-.7 1.25-1.39 2.06-1.85l.63-.24.59-.17.49-.09.63-.13c.29-.07.59-.09.9-.1v-.07c.67.05 1.34-.11 2.01-.1zM33.24 67.79c.89-.02 1.78 0 2.67 0l-.01.07c.54 0 1.08.03 1.62.04l-.01.08h.55l-.09.17c.4-.02.81-.06 1.21-.01.25.07.51.11.77.15l-.01.06.44.05c.21.09.43.18.65.26l.04.09.16-.02c.79.57 1.54 1.22 2.11 2.01.46.54.74 1.21 1.12 1.8.34.39.75.71 1.15 1.03l-.02.2-.38.02v-.11l-.41-.2-.47-.2c-.44-.04-.89-.03-1.33 0l.01.07-.56.05c-.24.07-.49.12-.73.17-.56.09-1.13.07-1.7.03l-.5-.17c-.26-.11-.5-.24-.75-.36-.46-.29-.89-.65-1.3-1.01-.42-.35-.81-.75-1.24-1.1-.34-.29-.66-.59-.99-.89h-.06l-.31-.32c-.2-.18-.4-.36-.6-.52l-.73-.48-.46-.17v-.08l-.62-.04.01-.08c-.62-.02-1.24-.05-1.87-.05v-.3c.35-.03.69-.08 1.03-.16.54.01 1.08.02 1.61-.08zM104.89 72.06c.32.8.2 1.68.22 2.52-.07 1.61-.23 3.22-.58 4.8-.17.86-.37 1.73-.73 2.53-.19.45-.55.78-.86 1.14-.86.9-1.97 1.49-3.09 2.01l-.11.01-.27.15c-.45.32-.79.76-1.21 1.1l-.06-.42c.81-.73.74-1.92.56-2.9-.21-1.13-.08-2.39.69-3.3.72-.87 1.62-1.57 2.43-2.35.75-.73 1.61-1.36 2.22-2.22.6-.91.56-2.04.79-3.07zM55.58 72.45c.24.87.21 1.81.56 2.65.21.33.45.65.72.93l.01.04c1.33 1.29 2.79 2.46 4.09 3.79.6.76 1.01 1.7.92 2.69-.07.88-.39 1.8-.12 2.68.12.39.35.72.62 1.03l-.05.34-.37-.23c-.39-.42-.81-.83-1.35-1.05l-.14-.01-.26-.12-.45-.21-.23-.12-.54-.29-.87-.6c-.53-.49-1.1-.98-1.41-1.64-.43-.89-.67-1.86-.84-2.83-.38-2.1-.61-4.24-.46-6.37.03-.25.1-.47.17-.68zM116.73 75.23v-.06c1.22-.06 2.44-.04 3.65 0v.08l1.11.04-.01.08c.58-.01 1.14.17 1.72.18l.01.06c.23.02.46.05.69.12l.43.05.01.05c.21.03.43.07.64.12.23.07.46.14.7.2l.01.04.57.18.25.23c-.43.02-.86-.01-1.29-.03v-.08c-.52-.02-1.03-.04-1.55.02l-.38.13-.46.19c-.43.22-.85.47-1.25.74l-.11.03c-.2.15-.41.29-.62.43-.31.18-.6.37-.9.57l-.81.5-.65.37-.02.09-.14-.02v.09c-.19.09-.37.18-.55.29h-.1l-.47.21-.41.12c-.48.05-.97.05-1.45 0l-.4-.13-.46-.16-.37-.15-.51-.18-.45-.2c-.61-.05-1.28-.16-1.85.14-.13.05-.27.09-.41.12l-.06-.35.32-.14c.43-.29.97-.48 1.26-.94.48-.66 1.03-1.26 1.66-1.77.22-.17.44-.34.65-.52l.12-.01.49-.34h.12c.2-.11.41-.2.62-.29.19-.05.41-.08.65-.1zM40.54 75.76c1.11-.03 2.22-.06 3.34.01v.09h.32c.27.11.55.23.81.36l.34.18.02.04c.5.27.93.64 1.37.98.57.51 1.05 1.1 1.51 1.7.2.13.4.25.61.36l.03.05.72.35-.01.29c-.19 0-.39-.01-.56-.13l-.15.01v-.12c-.5-.06-1-.05-1.49-.01l.01.07c-.18.04-.37.08-.54.14l-.6.28-.12.01-.49.22c-.26.08-.53.14-.81.18l.01.07c-.39 0-.78.01-1.16-.02-.17-.05-.34-.09-.51-.12l-.49-.21-.16.01-.04-.15-.18.02-.34-.22-.25-.15-.32-.16-.01-.05-.61-.33.01-.09-.17-.02c-.4-.27-.83-.5-1.24-.76-.28-.19-.57-.37-.85-.54l-.25-.17-.12-.01c-.44-.31-.94-.52-1.45-.69-.76-.2-1.52-.01-2.3.01l.01.1-.59-.06c.17-.36.57-.34.88-.47l.51-.15.58-.14c.2-.04.41-.08.61-.14l.46-.05-.01-.07.73-.05v-.08c.29-.02.57-.04.86-.05v-.06c.26-.02.53-.04.79-.08.42-.1.86-.09 1.29-.1v-.08zM97.5 77.39l.18-.3c.04.48-.05.96-.17 1.42-.54 2.17-1.3 4.29-2.29 6.3-.64 1.31-1.32 2.66-2.49 3.57l-.15-.04-.01.11c-.39.21-.77.43-1.17.62l-.97.38-.28.06-.57.18-.51.08c-.28.07-.56.12-.84.17l-.51.1-.42.21v.05c-.34.18-.67.37-.99.58l-.15-.38c.54-.38 1.06-.86 1.26-1.51.38-1.15.24-2.41.75-3.53l.41-.69c.37-.45.82-.82 1.3-1.15l.23-.12.42-.22 1.36-.77.1-.04.51-.27.59-.32.13-.02.51-.34.12-.01.48-.3.63-.33c.37-.24.75-.49 1.08-.79.4-.37.64-.87.88-1.35.17-.46.36-.91.58-1.35zM63.39 80.2c-.23-.91-.61-1.83-.49-2.78.41.71.62 1.52 1.07 2.21v.1c.28.35.59.68.94.96l.48.32.11.03.51.31.38.19.6.34h.11l.26.16.59.3c.54.27 1.08.54 1.61.83l.62.33.43.25v.09l.17-.02c.55.41 1.12.84 1.45 1.46.71 1.04.59 2.36.88 3.54.12.54.46.99.82 1.4l.05.02.44.28-.01.43-.26-.01.01-.13-.14.03-.02-.08-.66-.33-.48-.3-.7-.05.03-.08-.67-.06c-.21-.05-.42-.1-.63-.13-.45-.11-.89-.24-1.32-.4l-.62-.26-.43-.2-.02-.05-.45-.2-.01-.09-.14.02-.01-.14-.2.03-.01-.15-.09.01c-.93-.77-1.45-1.88-2.04-2.9-.18-.32-.34-.65-.49-.99-.65-1.4-1.18-2.84-1.67-4.29zM110.35 81.84l-.01-.06c.65-.03 1.29-.01 1.94.01v.07c.27.02.55.03.81.11.23.03.46.05.69.06l-.01.05c.25.03.51.08.76.15l.46.05.01.05c.18.04.37.08.55.14l.43.06v.05c.31.06.6.15.9.23l1.13.34.47.17.36.11.53.19.43.14v.09l.16-.03c.21.1.43.21.65.29.25.11.5.23.75.35.23.12.33.31.25.57l-.09-.2-.44-.06c-1.04-.4-2.17-.44-3.27-.32l.03.06c-.28.05-.54.15-.8.26l-.26.14-.11.01c-.21.11-.43.2-.65.28l-.04.04c-.27.1-.53.22-.8.33l-.37.2h-.11l-.73.38-.17-.01-.03.09c-.22.08-.44.17-.65.27l-.5.21-.62.28-.11.04c-.19.06-.38.1-.57.14l.01.06-.52.03.04.08c-.49.02-.99.03-1.48 0v-.06c-.18-.03-.37-.06-.55-.11-.33-.15-.67-.3-.99-.46l-.5-.3-.09-.05c-.33-.2-.68-.38-1.04-.51l-.01-.05-.62-.05.02-.08h-.73l-.7.18-.17.07v-.15l-.13.01v-.33l.31-.04.48-.24.11-.01.51-.21.53-.43-.01-.1.09.01.35-.32c.5-.47 1.08-.84 1.61-1.27h.15l.01-.13.11.02.32-.23.13-.02.61-.29c.38-.15.77-.3 1.18-.35zM47.68 82.39l.83-.04c.55-.11 1.11-.12 1.66-.03.35.09.68.21 1.02.32l.6.25.48.25.44.24.03.04c.73.43 1.37.99 1.99 1.56l.35.31.39.16.48.21.1.03c.19.07.39.13.59.19l-.05.38-.33.02-.01-.11c-.56-.05-1.12-.07-1.68 0l-.46.23h-.12c-.17.1-.35.2-.53.29l-.03.04c-.21.14-.43.27-.65.4l-1 .51-.11.01-.73.22c-.44.03-.87.02-1.31.01l-.01-.07c-.39-.01-.77-.12-1.14-.24-.21-.08-.42-.17-.62-.26l-.62-.23c-.26-.12-.51-.24-.78-.33l-.04-.05-.45-.17-.59-.25-.49-.23-.16.02-.03-.14-.16.02c-.2-.1-.41-.19-.62-.28l-.48-.19-.6-.24-.39-.14c-.68-.08-1.36-.06-2.03-.01l.02.06c-.65.08-1.25.4-1.91.43l.2-.24.62-.37.66-.29.86-.36.37-.13.46-.17.37-.12c.77-.23 1.51-.56 2.31-.69l-.02-.06.43-.06c.32-.12.66-.2.99-.26l.56-.1-.01-.06.55-.06c.26-.08.53-.11.8-.13v-.09zM102.24 87.53c.41-.01.82-.01 1.23 0v.08l.56.05c.29.1.59.19.89.26l.44.18.27.05.48.22.12.01.64.25.48.19.62.29.11.01.51.25c.37.16.74.34 1.09.54l.39.2.62.29.07.09.41.2.09.05.41.24.31.21.11-.02.02.15.15-.01c.4.33.83.62 1.2 1h-.53l.01-.07c-.23-.07-.45-.16-.66-.26l-.38-.19-.48-.17-.36-.16c-.68-.08-1.37-.06-2.05.01v.06l-.43.13-.57.07.04.04-.46.12-.42.07-.01.06-.53.1c-.29.08-.58.16-.87.23l-.54.12v.05l-.43.06c-.18.06-.37.1-.55.14v.06l-.49.03v.08l-.57.05c-.51.13-1.04.12-1.55.02l-.4-.07-.46-.18-.49-.22c-.25-.17-.49-.33-.73-.51l-.61-.51-.05-.02c-.23-.21-.48-.4-.72-.6l-.12-.01-.47-.25c-.54-.19-1.11-.14-1.67-.11l-.17-.39.3.03-.01-.12.5-.02v-.09l.55-.06.47-.21.33-.17.03-.04.4-.3h.15l.02-.14.09.03.03-.08c.47-.26.93-.54 1.44-.71l.01-.09.16.03.47-.23.34-.04v-.06c.22-.04.44-.08.65-.15l.58-.05-.01-.09zM57.19 87.96c.43-.1.88-.09 1.3.03l.61.04-.03.08.46.04c.28.11.58.2.86.32l.1.02.47.22.63.31.45.24.01.1.16-.02.48.36.1.02.52.32.57.07-.02.07.63.04-.02.09.45.03-.16.35c-.46.01-.92-.02-1.39.02l.01.06-.56.17-.25.15-.59.41c-.6.5-1.18 1.05-1.89 1.41l-.45.21c-.26.08-.54.14-.81.17l.01.06c-.5.01-.99 0-1.49 0l.03-.07c-.24-.03-.47-.05-.7-.11l-.53-.08v-.07l-.5-.02-.01-.07c-.36-.06-.72-.16-1.09-.2v-.08l-.52-.02.03-.08-.45-.06-.5-.14c-.38-.09-.75-.2-1.14-.24l-.01-.06-.44-.06c-.63-.18-1.31-.13-1.96-.06l-.4.13-.44.18-.49.22c-.2.08-.4.17-.6.27l-.46.16-.06.21-.04-.31c.47-.45 1.01-.82 1.55-1.18l.29-.2.36-.17.01-.06.4-.19c.29-.17.58-.33.88-.47l.33-.18.49-.27.5-.24.4-.17c.28-.14.57-.27.86-.39.28-.12.56-.25.85-.36l.63-.23.45-.18.53-.19.54-.14v-.05c.35-.01.7-.1 1.05-.16zM67.04 91.58c.69-.02 1.39-.02 2.08.01l-.02.06c.23.02.46.06.69.12l.5.08.47.16.39.13.31.05-.01.06c.15.05.31.11.46.18l.13-.02.05.15.14-.02c.18.08.37.13.57.18l-.01.06c.58 0 1.17.01 1.75.02l-.16.45c-.26.01-.53.02-.79.04l-.49.19c-1.26.57-1.83 1.94-2.91 2.73-.25.15-.5.3-.75.44-.3.11-.6.2-.91.24v.06c-1.23.09-2.47-.01-3.7-.01v-.08c-1.44 0-2.89-.27-4.33-.1l-.51.19-.11.01-.41.18-.02.03c-.33.18-.65.39-.95.62l-.11.03-.73.52-.24-.05c.32-.38.65-.76 1.02-1.1.39-.36.76-.73 1.18-1.05l.46-.37c.38-.28.75-.57 1.12-.86l.4-.3c.44-.31.89-.61 1.33-.91l.97-.63.4-.2.02-.09.14.02.02-.09.28-.12.47-.26.44-.17.03-.05.63-.25.26-.09.43-.11.02-.08zM91.21 91.46c.88-.04 1.76-.11 2.64-.01l.47.18.39.18h.1l.51.26c.33.16.67.32.99.5l1.01.6.3.22.34.16-.01.05c.36.21.71.45 1.05.71l.36.23c1.3.99 2.61 1.99 3.71 3.21l.05.25-.56-.28c-.3-.2-.59-.41-.88-.63l-.1-.03c-.27-.18-.57-.33-.87-.46-.26-.08-.51-.14-.78-.18-.59-.11-1.19-.08-1.78.03-.52.01-1.03.05-1.54.05v.08c-.47-.01-.94.04-1.39.12-.4.01-.8.03-1.2.03l.01.07c-.72.03-1.45.01-2.16-.12l-.47-.18c-1.43-.47-2.13-1.88-3.2-2.8l-.61-.36-.44-.11.02-.07c-.31-.02-.62-.03-.93-.04l-.07-.45c.56 0 1.12-.02 1.68-.04l.86-.36.46-.2.51-.2.54-.13-.01-.04c.33-.06.66-.15.99-.19l.01-.05z"/></svg>