<svg xmlns="http://www.w3.org/2000/svg" width="160" height="100" viewBox="0 0 160 100"><path fill="#010101" d="M2.58 29.33l9.06-.01v16.45h6.23c-.01-5.48 0-10.96 0-16.44h9.04c-.01 13.59 0 27.19 0 40.78h-9.05l.01-17.82h-6.23v17.82h-9.06v-40.78zM38.57 29.32h18.36v6.15c-3.1-.01-6.2 0-9.3 0-.01 3.35.01 6.71-.01 10.07h7.11c-.01 2.1-.01 4.19 0 6.29-2.37-.01-4.74 0-7.1 0l-.01 12.16c3.14-.01 6.27 0 9.41 0v6.12h-18.47c.02-13.6.02-27.2.01-40.79zM66.63 29.32h6.37c2.78 6.5 5.57 12.99 8.35 19.5.02-6.5 0-13 .01-19.5 2.51 0 5.01-.01 7.52.01v40.76c-2.05.02-4.11.01-6.16.01-2.79-7-5.57-14-8.37-21-.02 7-.01 14-.01 21h-7.7c-.01-13.59-.01-27.19-.01-40.78zM98.36 70.1l7.73-40.78h10.21l7.68 40.78h-8.37c-.46-2.89-.93-5.77-1.4-8.66h-5.9c-.46 2.89-.92 5.77-1.37 8.66h-8.58zm10.74-14.08h4.31c-.71-5.19-1.45-10.37-2.15-15.57-.75 5.19-1.42 10.38-2.16 15.57zM133.28 29.32h8.94v29.95c.05 1.28.12 2.64.83 3.75 1.07 1.57 3.81 1.46 4.7-.25.77-1.59.68-3.4.7-5.12-.04-9.44.05-18.88-.04-28.33 3.01-.01 6.01-.01 9.02 0v25.46c-.02 3.96.15 8.26-2.06 11.74-1.33 2.2-3.78 3.44-6.26 3.83-3.19.51-6.54.48-9.62-.58-1.97-.68-3.7-2.08-4.62-3.97-1.3-2.5-1.55-5.38-1.57-8.15-.01-9.44-.02-18.88-.02-28.33z"/></svg>