<svg xmlns="http://www.w3.org/2000/svg" width="160" height="100" viewBox="0 0 160 100"><path fill="#010101" d="M129.57 89.63c0 1.11 0 2.02-.07 2.5-.05.34-.08.57-.31.61l-.37.05c-.07 0-.1.05-.1.1 0 .07.07.1.19.1.19 0 .46-.01.69-.03l.52-.01c.18 0 .49 0 .99.03.49.01 1.18.04 2.08.04.46 0 .58 0 .67-.3.07-.24.16-1.03.16-1.11 0-.08-.01-.18-.08-.18s-.1.04-.12.18c-.07.46-.23.67-.54.8-.31.12-.88.12-1.2.12-1.18 0-1.4-.15-1.43-.92-.01-.23 0-1.58 0-1.97v-.96c0-.04.01-.08.08-.08.2 0 1.48.01 1.81.05.46.05.57.19.61.35.05.15.05.27.05.38 0 .07.03.11.08.11.08 0 .11-.12.11-.22 0-.08.03-.52.05-.75.03-.38.1-.57.1-.64 0-.07-.03-.1-.07-.1-.04 0-.1.07-.18.15-.12.12-.3.14-.58.16-.27.03-1.85.03-2 .03-.07 0-.07-.04-.07-.12v-3.14c0-.08.01-.12.07-.12.14 0 1.52.01 1.73.04.65.08.77.16.86.35.05.14.07.33.07.41 0 .1.03.15.1.15.05 0 .09-.07.11-.12.03-.14.05-.65.07-.76.03-.33.1-.46.1-.54l-.05-.11-.16.05-.54.07c-.27.01-2.77 0-2.85 0-.07 0-.84-.03-1.39-.03-.14 0-.19.03-.19.1 0 .04.05.1.1.1.11 0 .31.01.41.03.39.05.46.24.49.64.03.37.03.69.03 2.49v2.02zm-8.05-4.81c-.15-.4-.24-.55-.33-.55-.07 0-.15.07-.33.53l-2.5 6.46h-.03c-.15-.48-1.37-4.72-1.56-5.46-.14-.51-.23-.91-.23-1.06 0-.15.08-.22.16-.24.14-.07.33-.07.42-.07.05 0 .12-.04.12-.11 0-.05-.05-.08-.22-.08-.6 0-1.14.03-1.25.03-.12 0-.79-.03-1.41-.03-.11 0-.19.03-.19.08 0 .07.05.11.11.11.08 0 .38.01.54.07.31.11.44.26.62.87l2.12 6.85c.24.79.34.91.46.91.14 0 .22-.12.42-.61.43-1.07 2.05-5.3 2.46-6.3l2.34 6.32c.16.45.27.6.39.6.14 0 .2-.14.52-.99.48-1.29 1.66-4.96 2.19-6.43.23-.64.42-1.1.77-1.22.14-.04.37-.05.41-.05.08 0 .11-.07.11-.12 0-.04-.05-.07-.16-.07-.37 0-.88.03-.96.03-.11 0-.61-.03-1.22-.03-.15 0-.2.03-.2.08 0 .04.04.11.11.11.54 0 .64.14.64.34 0 .15-.01.29-.14.72-.42 1.48-1.49 4.82-1.79 5.77h-.05l-2.34-6.46zm-12.95 4.81c0 1.11 0 2.02-.07 2.5-.05.34-.08.57-.31.61l-.37.05c-.07 0-.1.05-.1.1 0 .07.07.1.19.1.19 0 .46-.01.69-.03l.52-.01c.18 0 .49 0 .99.03.49.01 1.18.04 2.08.04.46 0 .58 0 .67-.3.07-.24.16-1.03.16-1.11 0-.08-.01-.18-.08-.18s-.1.04-.12.18c-.07.46-.23.67-.54.8-.31.12-.88.12-1.2.12-1.18 0-1.4-.15-1.43-.92-.01-.23 0-1.58 0-1.97v-.96c0-.04.01-.08.08-.08.2 0 1.48.01 1.81.05.46.05.57.19.61.35.05.15.05.27.05.38 0 .07.03.11.08.11.08 0 .11-.12.11-.22 0-.08.03-.52.05-.75.03-.38.1-.57.1-.64 0-.07-.03-.1-.07-.1-.04 0-.1.07-.18.15-.12.12-.3.14-.58.16-.27.03-1.85.03-2 .03-.07 0-.07-.04-.07-.12v-3.14c0-.08.01-.12.07-.12.14 0 1.52.01 1.73.04.65.08.77.16.86.35.05.14.07.33.07.41 0 .1.03.15.1.15.05 0 .09-.07.11-.12.03-.14.05-.65.07-.76.03-.33.1-.46.1-.54l-.05-.11-.16.05-.54.07c-.27.01-2.77 0-2.85 0-.07 0-.84-.03-1.39-.03-.14 0-.19.03-.19.1 0 .04.05.1.1.1.11 0 .31.01.41.03.39.05.46.24.49.64.03.37.03.69.03 2.49v2.02zm-6.46 1.34c0 .19 0 .68-.03 1.15-.03.34-.11.56-.35.61-.11.03-.24.05-.35.05-.07 0-.1.05-.1.1 0 .07.05.1.19.1.35 0 1.11-.04 1.17-.04.07 0 .84.04 1.51.04.12 0 .19-.04.19-.1 0-.04-.03-.1-.1-.1-.11 0-.38-.03-.54-.05-.35-.05-.43-.27-.46-.61-.04-.48-.04-.96-.04-1.15v-.99c0-.38-.05-.75.15-1.15.24-.49 1.93-3.21 2.32-3.67.26-.31.37-.43.6-.57.19-.11.42-.15.56-.15.1 0 .15-.07.15-.12 0-.04-.07-.07-.15-.07l-1.17.03c-.1 0-.52-.03-.83-.03-.12 0-.19.03-.19.07 0 .05.07.11.18.14.14.04.19.14.19.3 0 .15-.05.34-.2.6-.22.38-1.71 2.85-1.96 3.34l-2.17-3.6c-.08-.15-.16-.29-.16-.45 0-.1.05-.15.15-.19.11-.04.19-.08.19-.12 0-.05-.03-.08-.16-.08-.46 0-.95.03-1.03.03-.05 0-.95-.03-1.18-.03-.11 0-.15.03-.15.08s.05.11.12.11c.1 0 .33.05.5.16.22.15.5.41.79.84.41.61 2.02 3.18 2.12 3.36.18.33.26.56.26 1.18v.98zm-9.71-1.93c0 1.3 0 2.38-.07 2.95-.05.39-.12.69-.39.75-.12.03-.29.05-.41.05-.08 0-.11.04-.11.08 0 .08.07.11.22.11l.79-.03.54-.01c.2 0 .53.01 1.06.04.53.01 1.28.04 2.3.04.53 0 .64 0 .73-.35.07-.29.18-1.21.18-1.32 0-.1 0-.2-.08-.2-.07 0-.1.05-.12.2-.1.56-.26.83-.61.98-.35.15-.95.15-1.3.15-1.33 0-1.54-.18-1.58-1.11-.01-.29 0-1.86 0-2.32v-1.2c0-.05.03-.1.1-.1.23 0 1.58.03 1.94.07.53.05.65.29.71.48.05.18.05.31.05.45 0 .07.03.12.1.12.1 0 .1-.15.1-.26 0-.1.03-.6.05-.87.04-.45.11-.68.11-.76 0-.08-.03-.11-.07-.11-.05 0-.11.07-.2.18-.12.14-.31.16-.64.19-.31.03-1.98.03-2.16.03-.07 0-.08-.04-.08-.14v-3.75c0-.1.03-.14.08-.14.15 0 1.63.01 1.86.04.73.08.87.24.96.46.07.16.08.39.08.49 0 .11.03.18.11.18.05 0 .08-.08.1-.15.03-.16.05-.76.07-.9.04-.38.11-.54.11-.64 0-.07-.01-.12-.05-.12l-.19.07c-.11.03-.33.05-.58.07-.31.01-3.02.01-3.11.01l-.56-.03c-.3-.01-.67-.01-.98-.01-.15 0-.22.03-.22.11 0 .05.05.08.11.08.12 0 .35.01.46.04.45.1.56.31.58.77.03.43.03.82.03 2.93v2.4zm-12.47.25l-.04-.08 1.11-3.17c.07-.18.14-.18.2 0l1.18 3.16-.04.08h-2.41zm-1.73 2.42c-.23.58-.46.99-1.01 1.06l-.35.03c-.05 0-.11.04-.11.1 0 .07.08.1.23.1.49 0 1.09-.04 1.21-.04.14 0 .79.04 1.07.04.11 0 .18-.03.18-.1 0-.05-.03-.1-.12-.1h-.11c-.2 0-.41-.08-.41-.31 0-.2.07-.49.18-.77l.68-1.85c.03-.07.07-.1.12-.1h2.76c.07 0 .08.01.11.07l1.07 2.65c.08.19-.04.29-.11.31l-.08.08c0 .07.19.07.42.08.83.03 1.71.03 1.89.03.14 0 .27-.03.27-.1s-.08-.1-.15-.1c-.12 0-.3-.01-.48-.07-.26-.08-.58-.23-1.02-1.26-.73-1.75-2.65-6.52-2.87-7.01-.12-.26-.16-.42-.29-.42-.08 0-.14.07-.29.45l-2.79 7.23zm-5.31-4.12c0-1.79 0-2.12.01-2.49.03-.41.1-.58.45-.65l.39-.03c.04 0 .1-.04.1-.08 0-.07-.07-.1-.19-.1-.37 0-1.26.03-1.32.03-.07 0-.81-.03-1.36-.03-.14 0-.19.03-.19.1 0 .04.05.1.1.1.11 0 .31.01.41.03.39.05.46.24.49.64.03.37.03.69.03 2.49v2.04c0 1.11 0 2.02-.07 2.5-.05.34-.08.56-.31.61-.11.03-.26.05-.37.05-.07 0-.1.05-.1.1 0 .07.07.1.19.1.19 0 .45-.01.69-.03l.49-.01c.35 0 .76.01 1.3.03.56.03 1.22.04 2.08.04.64 0 .68-.04.76-.31.1-.34.18-1.03.18-1.15 0-.12-.03-.18-.08-.18-.07 0-.11.07-.12.15-.04.23-.14.48-.29.65-.29.34-.82.35-1.44.35-.94 0-1.4-.08-1.59-.27-.22-.2-.24-.9-.24-2.59v-2.09zm-7.27 0c0-1.79 0-2.12.01-2.49.03-.41.1-.58.45-.65l.39-.03c.04 0 .1-.04.1-.08 0-.07-.07-.1-.19-.1-.37 0-1.26.03-1.32.03-.07 0-.81-.03-1.36-.03-.14 0-.19.03-.19.1 0 .04.05.1.1.1.11 0 .31.01.41.03.39.05.46.24.49.64.03.37.03.69.03 2.49v2.04c0 1.11 0 2.02-.07 2.5-.05.34-.08.56-.31.61-.11.03-.26.05-.37.05-.07 0-.1.05-.1.1 0 .07.07.1.19.1.19 0 .45-.01.69-.03l.49-.01c.35 0 .76.01 1.3.03.56.03 1.22.04 2.08.04.64 0 .68-.04.76-.31.1-.34.18-1.03.18-1.15 0-.12-.03-.18-.08-.18-.07 0-.11.07-.12.15-.04.23-.14.48-.29.65-.29.34-.82.35-1.44.35-.94 0-1.4-.08-1.59-.27-.22-.2-.24-.9-.24-2.59v-2.09zm-8.83 1.7l-.04-.08 1.11-3.16c.07-.18.14-.18.2 0l1.18 3.16-.04.08h-2.41zm-1.72 2.42c-.23.58-.46.99-1.01 1.06l-.35.03c-.05 0-.11.04-.11.1 0 .07.08.1.23.1.49 0 1.09-.04 1.21-.04.14 0 .79.04 1.07.04.11 0 .18-.03.18-.1 0-.05-.03-.1-.12-.1h-.11c-.2 0-.41-.08-.41-.31 0-.2.07-.49.18-.77l.68-1.85c.03-.07.07-.1.12-.1h2.76c.07 0 .08.01.11.07l1.07 2.65c.08.19-.04.29-.11.31l-.08.08c0 .07.19.07.42.08.83.03 1.71.03 1.89.03.14 0 .27-.03.27-.1s-.08-.1-.15-.1c-.12 0-.3-.01-.48-.07-.26-.08-.58-.23-1.02-1.26-.73-1.75-2.65-6.52-2.87-7.01-.12-.26-.16-.42-.29-.42-.08 0-.14.07-.29.45l-2.79 7.23zm-6.25-3.24l.07-.08c.19 0 .79 0 .94.03.29.05.67.04 1.07.3.94.6 1.14 1.59 1.14 2.11 0 1.48-.96 1.78-1.75 1.78-.22 0-.72-.01-1.05-.16-.37-.18-.37-.31-.41-.87-.01-.18-.01-1.56-.01-2.46v-.65zm0-3.68c0-.07.04-.1.15-.12.19-.04.48-.05.61-.05 1.2 0 1.68.98 1.68 1.86 0 .56-.2.95-.46 1.24-.24.27-.5.3-1.17.3-.45 0-.67-.04-.73-.05-.05-.01-.08-.04-.08-.12v-3.06zm-1.03 4.84c0 1.11 0 2.02-.07 2.5-.05.34-.08.6-.31.64l-.37.05c-.07 0-.1.03-.1.07 0 .07.07.1.19.1.19 0 .48-.01.72-.03l.49-.01.77.03c.38.03.81.04 1.03.04 2.04 0 3-1.28 3-2.57 0-1.3-1.19-2.13-2.11-2.4.61-.54 1.21-1.11 1.21-2.02 0-.61-.52-1.77-2.51-1.77-.56 0-1.11.03-1.4.03-.07 0-.84-.03-1.39-.03-.14 0-.19.03-.19.1 0 .04.05.07.1.07.11 0 .31.01.41.03.39.05.46.27.49.67.03.37.03.69.03 2.49v2.01zm-4.42-5.23c-.03-.22-.1-.31-.18-.31-.08 0-.14.08-.19.19l-3.48 7.16-3.61-7.17c-.07-.14-.16-.18-.24-.18-.07 0-.12.08-.14.2l-.87 7.54c-.05.44-.07.86-.46.92l-.35.04c-.07 0-.12.04-.12.08 0 .08.08.11.2.11.33 0 .9-.04 1.01-.04.1 0 .67.04 1.11.04.14 0 .22-.03.22-.11 0-.04-.05-.08-.09-.08-.08 0-.26-.01-.46-.07-.18-.04-.29-.15-.29-.33l.01-.58.46-5.22h.05c.2.48 1.17 2.42 1.52 3.15.3.62 1.09 2.11 1.4 2.68.23.42.3.53.41.53.11 0 .18-.11.42-.61l2.88-5.9h.03l.57 5.84c.03.22.01.39-.05.41-.05.01-.08.05-.08.1s.05.1.34.12c.43.04 1.77.07 2.04.07.14 0 .24-.04.24-.11 0-.05-.04-.08-.1-.08-.12 0-.43 0-.77-.11-.49-.16-.57-.79-.61-1.2l-.82-7.08zm-16.19 4.89l-.04-.08 1.11-3.16c.07-.18.14-.18.2 0l1.18 3.16-.04.08h-2.41zm-1.72 2.42c-.23.58-.46.99-1.01 1.06l-.35.03c-.05 0-.11.04-.11.1 0 .07.08.1.23.1.49 0 1.09-.04 1.21-.04.14 0 .79.04 1.07.04.11 0 .18-.03.18-.1 0-.05-.03-.1-.12-.1h-.11c-.2 0-.41-.08-.41-.31 0-.2.07-.49.18-.77l.68-1.85c.03-.07.07-.1.12-.1h2.76c.07 0 .08.01.11.07l1.07 2.65c.08.19-.04.29-.11.31l-.08.08c0 .07.19.07.42.08.83.03 1.71.03 1.89.03.14 0 .27-.03.27-.1s-.08-.1-.15-.1c-.12 0-.3-.01-.48-.07-.26-.08-.58-.23-1.02-1.26-.73-1.75-2.65-6.52-2.87-7.01-.12-.26-.16-.42-.29-.42-.08 0-.14.07-.29.45l-2.79 7.23zm-3.22-4.12c0-1.79 0-2.12.03-2.49.03-.41.1-.57.41-.64l.3-.03c.05 0 .11-.05.11-.1 0-.07-.07-.1-.2-.1-.35 0-1.11.03-1.18.03-.05 0-.83-.03-1.36-.03-.14 0-.19.03-.19.1 0 .04.04.1.1.1.11 0 .31.01.41.03.39.05.45.24.48.64.01.37.03.72.03 2.51v.24l-.07.07h-5.01l-.07-.07v-.24c0-1.79 0-2.15.01-2.51.03-.41.1-.57.42-.64l.3-.03c.04 0 .1-.05.1-.1 0-.07-.05-.1-.19-.1-.37 0-1.13.03-1.18.03-.07 0-.83-.03-1.37-.03-.14 0-.19.03-.19.1 0 .04.05.1.1.1.11 0 .31.01.41.03.39.05.46.24.49.64.03.37.03.69.03 2.49v2.04c0 1.11 0 2.02-.07 2.5-.05.34-.08.56-.31.61-.11.03-.26.05-.37.05-.07 0-.1.05-.1.1 0 .07.07.1.19.1.37 0 1.13-.04 1.2-.04.05 0 .82.04 1.48.04.14 0 .19-.04.19-.1 0-.04-.03-.1-.1-.1-.11 0-.37-.03-.54-.05-.35-.05-.39-.27-.43-.61-.05-.48-.05-1.36-.05-2.47v-1.16l.07-.07h4.99l.07.07v1.15c0 1.11 0 1.98-.05 2.46-.04.34-.08.57-.33.63-.11.03-.24.05-.35.05-.07 0-.09.05-.09.1 0 .07.05.1.19.1.35 0 1.13-.04 1.18-.04.07 0 .83.04 1.48.04.14 0 .2-.04.2-.1 0-.04-.03-.1-.11-.1-.1 0-.37-.03-.53-.05-.37-.05-.39-.27-.44-.61-.05-.48-.07-1.39-.07-2.5v-2.04zm124.33-2.73c0-.07.04-.11.1-.14.12-.03.5-.07.86-.07 1.28 0 2.06.83 2.06 2.27 0 .88-.31 1.49-.72 1.77-.29.19-.61.2-.9.2-.53 0-1.14-.08-1.32-.18-.05-.04-.08-.08-.08-.15v-3.7zm-1.04 4.77c0 1.11 0 2.02-.07 2.5-.05.34-.08.56-.31.61-.11.03-.26.05-.37.05-.07 0-.1.05-.1.1 0 .07.07.1.19.1.37 0 1.17-.04 1.18-.04.05 0 .82.04 1.47.04.14 0 .19-.04.19-.1 0-.04-.01-.1-.1-.1-.11 0-.37-.03-.53-.05-.37-.05-.44-.27-.48-.61-.05-.48-.05-1.37-.05-2.49v-.27c0-.07.03-.1.08-.1l1.52.03c.08 0 .11.01.16.07.26.31.79 1.06 1.29 1.68.68.87 1.11 1.43 1.63 1.7.3.16.6.23 1.28.23h.75c.22 0 .29-.03.29-.1 0-.04-.04-.1-.11-.1s-.19 0-.42-.04c-.3-.04-.69-.15-1.33-.8-.69-.72-1.52-1.77-2.5-2.99 1.11-.95 1.47-1.78 1.47-2.64 0-.8-.53-1.36-.83-1.58-.62-.43-1.47-.5-2.23-.5-.37 0-1.37.03-1.49.03-.07 0-.87-.03-1.41-.03-.14 0-.19.03-.19.1 0 .04.05.1.1.1.11 0 .31.01.41.03.39.05.46.24.49.64.03.37.03.69.03 2.49v2.04zm-7.74-.34l-.04-.08 1.11-3.16c.07-.18.14-.18.2 0l1.18 3.16-.04.08h-2.41zm-32.91-46l-8.43 8.44c-.85.85-2.25.85-3.11 0l-8.43-8.44 8.15 3.52c1.04.45 2.48.55 3.33.18l8.49-3.7zm-19.97-4.74l8.43-8.43c.86-.85 2.25-.85 3.11 0l8.43 8.44-8.15-3.52c-1.04-.45-2.49-.54-3.33-.18l-8.49 3.69zm-30.52 4.74l8.43 8.44c.85.85 2.25.85 3.11 0l8.43-8.44-8.15 3.52c-1.04.45-2.48.55-3.33.18l-8.49-3.7zm19.98-4.74l-8.43-8.43c-.86-.85-2.25-.85-3.11 0l-8.43 8.44 8.15-3.52c1.04-.45 2.49-.54 3.33-.18l8.49 3.69zm-.04.69l-28.79 1.68 28.79 1.68v-3.36zm7.68-23.56l8.44 8.43c.85.86.85 2.25 0 3.1l-8.44 8.43 3.52-8.15c.45-1.04.55-2.48.18-3.33l-3.7-8.48zm-4.74 19.97l-8.43-8.43c-.85-.85-.85-2.25 0-3.1l8.44-8.43-3.52 8.15c-.45 1.04-.54 2.49-.18 3.33l3.69 8.48zm4.74 30.52l8.44-8.43c.85-.85.85-2.25 0-3.1l-8.44-8.43 3.52 8.15c.45 1.04.55 2.48.18 3.33l-3.7 8.48zm-4.74-19.98l-8.43 8.43c-.85.85-.85 2.25 0 3.1l8.44 8.43-3.52-8.15c-.45-1.04-.54-2.49-.18-3.33l3.69-8.48zm.69.04l1.68 28.79 1.68-28.79h-3.36zm0-10.61l1.68-28.79 1.68 28.79h-3.36zm6.99 3.62l28.79 1.68-28.79 1.68v-3.36zm-4.62-.88c.93.24 1.66.97 1.9 1.9.6.2.93-.72.93-.72v-.24h.72v3.25h-.72v-.24s-.33-.92-.93-.72c-.24.93-.97 1.66-1.9 1.9-.2.6.72.93.72.93h.24v.72h-3.2399999999999998v-.72h.24s.92-.33.72-.93c-.93-.24-1.67-.97-1.91-1.91-.6-.19-.93.72-.93.72v.24h-.72v-3.2399999999999998h.72v.24s.32.91.93.72c.24-.93.97-1.67 1.91-1.91.19-.6-.72-.93-.72-.93h-.24v-.72h3.24v.72h-.24c0 .01-.92.33-.72.94zm55.74 53.35c-.23.58-.46.99-1.01 1.06l-.35.03c-.05 0-.11.04-.11.1 0 .07.08.1.23.1.49 0 1.09-.04 1.21-.04.14 0 .79.04 1.07.04.11 0 .18-.03.18-.1 0-.05-.03-.1-.12-.1h-.11c-.2 0-.41-.08-.41-.31 0-.2.07-.49.18-.77l.68-1.85c.03-.07.07-.1.12-.1h2.76c.07 0 .08.01.11.07l1.07 2.65c.08.19-.04.29-.11.31l-.08.08c0 .07.19.07.42.08.83.03 1.71.03 1.89.03.14 0 .27-.03.27-.1s-.08-.1-.15-.1c-.12 0-.3-.01-.48-.07-.26-.08-.58-.23-1.02-1.26-.73-1.75-2.65-6.52-2.87-7.01-.12-.26-.16-.42-.29-.42-.08 0-.14.07-.29.45l-2.79 7.23zm-127.61 1.46c.73 0 1.47-.16 2.05-.57.94-.67 1.15-1.7 1.15-2.25 0-1.09-.38-1.93-1.98-3.19l-.38-.3c-1.3-1.02-1.66-1.51-1.66-2.28 0-.99.73-1.58 1.67-1.58 1.25 0 1.62.57 1.7.72.08.15.16.52.18.68.01.11.03.18.11.18.07 0 .1-.1.1-.31 0-.92.05-1.37.05-1.44 0-.07-.03-.1-.14-.1-.11 0-.22-.01-.48-.07-.34-.08-.73-.14-1.26-.14-1.73 0-2.81.99-2.81 2.45 0 .92.33 1.77 1.77 2.95l.61.5c1.17.96 1.56 1.51 1.56 2.45 0 .87-.64 1.81-1.94 1.81-.91 0-1.81-.38-2.01-1.39-.04-.19-.04-.38-.04-.5 0-.11-.01-.15-.1-.15-.07 0-.1.07-.11.22-.01.22-.07.76-.07 1.44 0 .37.01.42.2.52.57.26 1.19.35 1.83.35z"/></svg>