<svg xmlns="http://www.w3.org/2000/svg" width="160" height="100" viewBox="0 0 160 100"><path fill="#010101" d="M8.1 33.8c1.77-1.73 4.37-2.36 6.79-2.13 2.35.15 4.66 1.35 5.94 3.36 1.3-1.98 3.56-3.19 5.9-3.35 2.34-.24 4.87.32 6.64 1.93 1.77 1.58 2.59 4.01 2.57 6.34 0 9.29.01 18.58-.01 27.88h-2.72l-.01-26.75c.04-1.45 0-2.99-.76-4.28-.74-1.39-2.26-2.22-3.79-2.38-1.18-.09-2.42-.07-3.52.43-1.27.51-2.23 1.65-2.61 2.95-.41 1.32-.3 2.72-.32 4.08-.01 8.65.01 17.3-.01 25.95h-2.72c-.01-9.18 0-18.36 0-27.54 0-1.43-.25-2.94-1.16-4.08-.99-1.27-2.65-1.86-4.23-1.82-1.52-.07-3.14.37-4.21 1.5-1.02 1.09-1.4 2.62-1.43 4.07-.01 9.29.01 18.58-.01 27.87h-2.72c-.01-9.29 0-18.58 0-27.86.02-2.25.74-4.58 2.39-6.17zM42.79 32.5c2.32-1.09 5.09-1.15 7.48-.24 2.16.82 3.81 2.76 4.4 4.98.33 1.14.4 2.34.39 3.53v24.94c.01.71.01 1.42-.03 2.12-.89-.01-1.78-.01-2.67 0-.08-.97-.03-1.95-.04-2.92v-20.73h-10.99c0 7.71-.01 15.43 0 23.14.03.23-.02.6-.35.51-.79.02-1.58-.01-2.36 0-.09-.86-.07-1.73-.02-2.59-.13-2.62.09-5.23-.02-7.85.04-1.6-.08-3.2.02-4.8-.04-3.73-.02-7.47-.04-11.2.08-1.34-.06-2.71.34-4 .54-2.09 1.93-3.96 3.89-4.89zm1.6 2.28c-1.27.47-2.28 1.55-2.7 2.84-.48 1.22-.35 2.55-.37 3.82h11c.01-1.62.05-3.37-.84-4.79-.78-1.33-2.27-2.1-3.78-2.24-1.11-.07-2.26-.06-3.31.37zM76.02 32.47c2.21-1.08 4.81-1.21 7.18-.65 4.21 1.02 7.47 5.02 7.6 9.35h-2.74c-.15-2.58-1.75-5.01-4.06-6.16-1.49-.76-3.22-.91-4.86-.69-1.45.24-2.86.93-3.8 2.09-1.15 1.38-1.54 3.22-1.63 4.97-.07 1.45.29 2.97 1.23 4.1 1 1.21 2.4 2.05 3.89 2.5 1.77.55 3.6.93 5.35 1.55 2.23.93 4.26 2.56 5.33 4.76 1.12 2.23 1.14 4.87.52 7.24-.8 2.38-2.51 4.47-4.75 5.62-2.1 1.11-4.58 1.23-6.89.83-2.09-.36-4.04-1.5-5.32-3.19-1.3-1.73-2.03-3.84-2.35-5.96.9-.13 1.79-.33 2.7-.44.32 2.06 1.05 4.2 2.66 5.62 1.63 1.41 3.95 1.63 6.01 1.34 2.53-.37 4.6-2.39 5.36-4.77.39-1.65.4-3.45-.36-5-.75-1.58-2.19-2.73-3.76-3.43-2.17-.8-4.48-1.15-6.63-2.03-2.09-.95-4-2.5-4.97-4.63-1.06-2.39-.92-5.13-.22-7.6.68-2.32 2.3-4.39 4.51-5.42zM141.98 32.52c2.09-1.02 4.57-1.14 6.8-.52 1.96.55 3.67 1.93 4.56 3.77.66 1.34.95 2.85.95 4.34v27.71h-2.72c-.02-7.88-.01-15.76-.01-23.65-3.68-.02-7.35 0-11.03-.01 0 7.88.01 15.77-.01 23.65h-2.72c-.02-8.49 0-16.98-.01-25.48.02-1.71-.12-3.45.39-5.11.52-1.99 1.92-3.78 3.8-4.7zm-.51 3.97c-.98 1.45-.98 3.28-.95 4.96 3.67-.01 7.35 0 11.02 0 0-.88.04-1.76-.1-2.62-.18-1.25-.73-2.5-1.73-3.31-1.06-.86-2.47-1.19-3.81-1.13-1.69-.06-3.48.64-4.43 2.1zM55.49 32.13c5.36-.07 10.71-.01 16.07-.03v2.72c-2.22.08-4.44.02-6.66.04-.01 10.99.01 21.98-.01 32.97h-2.73c-.01-10.99 0-21.98 0-32.97h-5.85c-.28-.02-.56-.04-.84-.08.04-.88.03-1.76.02-2.65zM112.55 32.1c3.65-.02 7.37 0 10.92.97 3.04.78 5.97 2.24 8.14 4.54 2.27 2.34 3.55 5.48 4.04 8.66.39 2.72.37 5.51-.1 8.21-.56 3.02-1.86 5.97-4.04 8.18-2.35 2.44-5.55 3.91-8.83 4.63-3.32.8-6.75.78-10.14.76.02-11.98.01-23.96.01-35.95zm2.74 2.76v30.46c2.41.01 4.85-.18 7.19-.77 2.78-.66 5.49-1.99 7.41-4.15 1.95-2.19 2.93-5.09 3.19-7.98.27-2.95.12-6-.92-8.8-.84-2.33-2.4-4.4-4.46-5.77-2.69-1.81-5.93-2.62-9.13-2.84l.29-.04c-1.19-.03-2.38-.11-3.57-.11zM93.29 32.33c.92 0 1.83-.01 2.75 0-.01 9.15 0 18.31 0 27.46-.01 1.4.22 2.87 1.07 4.02.76 1.06 2.01 1.68 3.28 1.86 1.49.21 3.1.06 4.4-.75 1.18-.73 1.89-2.04 2.13-3.38.21-1.32.14-2.67.15-4v-25.21c.91 0 1.83-.01 2.74.01-.01 8.83 0 17.67 0 26.5.03 1.58-.03 3.2-.61 4.7-.68 1.95-2.22 3.56-4.14 4.32-2.13.82-4.54.86-6.7.12-1.68-.59-3.15-1.8-3.98-3.38-.78-1.41-1.07-3.05-1.07-4.65l-.02-27.62z"/></svg>