<svg xmlns="http://www.w3.org/2000/svg" width="160" height="100" viewBox="0 0 160 100"><path fill="#010101" d="M5.43 35.44c.69-.16 1.41-.2 2.11-.21.92 0 1.84 0 2.74.2.53.12 1.07.35 1.43.77.35.4.52.91.62 1.42.15.77.16 1.56.18 2.34.02 1.79 0 3.58.01 5.37h-4.01v-6c-.01-.26-.02-.53-.15-.76-.18-.29-.62-.29-.89-.13-.27.21-.28.59-.28.9v21.31c.01.26.01.53.13.76.17.33.66.38.93.17.24-.22.24-.56.26-.86v-8.46h4.01v6.11c0 1.11.02 2.22-.09 3.33-.07.68-.2 1.38-.6 1.95-.3.43-.78.71-1.27.86-.72.22-1.47.26-2.21.28-.87.01-1.76 0-2.62-.14-.58-.1-1.18-.29-1.62-.7-.43-.4-.63-.97-.74-1.53-.2-1.08-.17-2.18-.19-3.27v-18.26c.02-1.07-.01-2.15.19-3.2.11-.55.3-1.11.7-1.52.36-.4.86-.61 1.36-.73zM106.16 35.34c.93-.12 1.87-.12 2.8-.09.73.03 1.46.09 2.15.33.46.16.88.45 1.15.87.31.48.43 1.05.51 1.61.12.95.12 1.91.12 2.87v4.51h-4v-6.04c-.01-.29 0-.61-.18-.85-.22-.26-.61-.25-.91-.17-.35.12-.42.55-.42.87v21.53c.01.31.07.69.38.84.31.13.74.11.96-.18.17-.25.16-.57.17-.87v-8.14h-.86v-3.11h4.86v15.3h-1.55l-.54-1.43c-.32.41-.7.79-1.15 1.05-.64.38-1.41.51-2.14.52-.69.01-1.39-.05-2.04-.29-.55-.2-1.05-.55-1.39-1.03-.37-.51-.57-1.13-.65-1.76-.09-.64-.05-1.3-.06-1.95 0-6.59-.01-13.18.01-19.78.02-.85.04-1.71.23-2.54.13-.55.37-1.09.82-1.45.49-.38 1.12-.53 1.73-.62zM128.72 35.31c.86-.09 1.72-.09 2.59-.06.78.05 1.59.11 2.3.47.5.25.87.71 1.06 1.23.28.79.32 1.63.35 2.46.03 1.47.01 2.95.02 4.42v15.29c0 .95 0 1.9-.12 2.85-.08.59-.22 1.2-.58 1.69-.3.42-.77.68-1.26.83-.71.21-1.45.25-2.19.27-.89.01-1.79 0-2.68-.15-.58-.11-1.18-.29-1.61-.72-.41-.39-.6-.94-.71-1.48-.17-.85-.17-1.73-.19-2.6v-19.65c.02-.92.03-1.84.24-2.74.13-.55.38-1.1.84-1.46.54-.43 1.25-.57 1.94-.65zm1.31 3.1c-.31.19-.31.6-.33.92v21.24c.01.27.01.55.12.8.18.41.87.44 1.07.04.14-.28.13-.6.14-.9v-21.04c-.01-.3 0-.62-.15-.89-.17-.29-.58-.3-.85-.17zM139.14 35.37c.95-.16 1.93-.15 2.89-.13.75.04 1.51.09 2.21.37.46.18.88.51 1.12.95.33.58.43 1.25.49 1.91.09 1.02.07 2.05.07 3.08v3.78h-4v-6.07c-.01-.32-.06-.73-.39-.88-.25-.09-.6-.09-.78.15-.14.21-.15.48-.16.73v6.37c0 .33.04.69.28.94.36.37.83.61 1.27.88.65.39 1.3.78 1.94 1.17.56.34 1.07.8 1.38 1.39.36.67.43 1.44.45 2.19v7.68c-.01.79-.03 1.58-.16 2.36-.1.6-.3 1.22-.75 1.65-.43.42-1.03.61-1.61.72-.86.15-1.74.16-2.62.15-.79-.02-1.6-.06-2.35-.32-.51-.17-.98-.5-1.26-.97-.37-.62-.47-1.36-.53-2.07-.1-1.38-.05-2.77-.06-4.15v-5.01h4.01v8.47c0 .23.02.48.12.69.19.4.85.39 1.05.01.13-.23.15-.51.15-.77v-6.23c-.01-.69.02-1.38-.02-2.08-.01-.42-.33-.74-.66-.95-.65-.43-1.34-.82-2-1.23-.53-.34-1.11-.63-1.57-1.06-.37-.34-.67-.77-.83-1.25-.23-.66-.25-1.38-.25-2.07v-5.26c.01-.9.01-1.8.15-2.69.1-.62.29-1.26.75-1.72.46-.43 1.07-.63 1.67-.73zM149.41 35.52c.74-.23 1.53-.26 2.3-.28.92-.01 1.86-.01 2.77.18.55.12 1.1.34 1.49.77.45.49.62 1.16.71 1.8.14 1 .13 2.01.13 3.01v4.34h-4.01v-6c0-.23-.02-.48-.13-.69-.21-.43-.98-.42-1.12.06-.08.23-.08.47-.08.71v6.16c0 .35.02.73.28 1 .31.33.71.54 1.09.78l1.55.93c.39.24.79.45 1.14.75.45.37.81.84 1 1.39.24.66.27 1.37.28 2.06v4.99c-.01 1.27.03 2.54-.05 3.8-.06.73-.14 1.49-.49 2.14-.26.48-.71.83-1.22 1.01-.76.27-1.57.32-2.36.35-.81.02-1.63.02-2.44-.1-.6-.09-1.22-.25-1.71-.64-.41-.33-.66-.81-.79-1.31-.2-.74-.23-1.51-.26-2.28-.02-2.73 0-5.46-.01-8.19h4v7.56c.02.51-.06 1.03.09 1.52.14.45.84.49 1.07.1.13-.21.16-.47.16-.72v-6.64c-.01-.6.03-1.21-.03-1.81-.05-.47-.47-.75-.83-.99-.9-.56-1.8-1.1-2.7-1.65-.55-.35-1.06-.8-1.36-1.4-.33-.65-.39-1.39-.41-2.11v-5.26c0-.92 0-1.85.11-2.76.08-.61.21-1.24.58-1.74.31-.43.77-.7 1.25-.84zM13.82 35.34h4v25.31c0 .25.02.5.12.73.18.42.88.44 1.08.03.1-.21.12-.45.13-.68v-25.38h4.04v20.4c-.02 1.8.04 3.6-.04 5.4-.07.85-.15 1.78-.68 2.51-.49.66-1.34.9-2.12 1.01-1.04.13-2.09.12-3.13.05-.8-.07-1.64-.17-2.31-.66-.57-.43-.82-1.14-.94-1.82-.19-1.21-.15-2.45-.16-3.68.01-7.74.01-15.48.01-23.22zM23.97 35.34h7.68v3.07h-1.83v26.21h-4.01v-26.21h-1.83c-.01-1.03-.01-2.05-.01-3.07zM32.57 35.34h4v26.19h2.38v3.1h-6.38v-29.29zM39.75 35.34h6.38v3.07h-2.38v8.6h2.38v3.11h-2.38v11.39h2.38v3.1h-6.38v-29.27zM47.93 35.34h5.42c.92.02 1.91.06 2.7.6.66.46.94 1.27 1.06 2.03.22 1.44.15 2.9.16 4.34v3.67c-.02.87-.08 1.77-.44 2.59-.27.63-.77 1.14-1.35 1.49.4.22.79.5 1.07.87.34.44.52.98.61 1.52.1.65.11 1.31.11 1.97v10.2h-4.01v-11.59c0-.3-.07-.64-.33-.82-.29-.2-.66-.17-1-.17v12.58h-4v-29.28zm4 3.07v10.17c.32.04.69.06.96-.14s.36-.55.36-.87v-8.04c-.02-.31-.01-.67-.24-.91-.29-.26-.72-.2-1.08-.21zM65.89 35.34h5.95c.73 9.76 1.46 19.52 2.2 29.29h-4c-.1-2.22-.2-4.45-.29-6.67h-1.76l-.25 6.67h-4.04c.72-9.77 1.45-19.53 2.19-29.29zm2.92 4.36l-.69 15.15h1.51l-.72-15.13-.1-.02zM75.64 64.62v-29.32h3.35l2.56 14.32h.28l-.14-14.32h3.5v29.32h-3.36c-.88-5.19-1.75-10.38-2.63-15.58h-.28c.07 5.19.14 10.39.22 15.58h-3.5zM87.11 35.34h5.25c.83.01 1.68.04 2.46.37.51.22.92.63 1.15 1.14.33.74.4 1.56.45 2.36.07 1.5.02 3 .04 4.5v15.91c-.02.87-.03 1.74-.2 2.6-.11.53-.28 1.07-.64 1.48-.33.39-.82.63-1.31.75-.68.17-1.38.19-2.07.19h-5.11c-.02-9.78-.02-19.54-.02-29.3zm4.01 3.07v23.11c.36-.02.78.04 1.08-.21.26-.27.22-.67.24-1.02v-20.62c-.02-.35.01-.75-.22-1.04-.28-.27-.73-.21-1.1-.22zM114.65 35.34h5.24c.81.01 1.65.04 2.42.35.51.21.94.61 1.17 1.11.34.73.41 1.54.46 2.33.08 1.61.03 3.23.05 4.85-.01.99.04 1.99-.06 2.98-.07.71-.22 1.44-.61 2.04-.28.44-.68.79-1.12 1.06.46.25.89.58 1.18 1.02.35.52.49 1.14.55 1.76.08.85.05 1.7.06 2.56v9.24h-4.01v-11.11c-.01-.4.06-.86-.21-1.19-.28-.32-.74-.29-1.12-.29v12.58h-4c0-9.77.01-19.53 0-29.29zm4 3.07v10.17c.33.04.71.06.99-.16.27-.22.34-.59.34-.92v-7.96c-.02-.32-.01-.7-.26-.94-.3-.24-.71-.18-1.07-.19z"/></svg>