<svg xmlns="http://www.w3.org/2000/svg" width="160" height="100" viewBox="0 0 160 100"><path fill="#010101" d="M127.02 34.18h31.68v5.47c-1.02.07-2.05.01-3.05.2-1.24.29-2.35 1.2-2.8 2.4-1.9 4.4-3.81 8.8-5.71 13.21-.23.56-.65 1.05-1.18 1.35-.86.51-2 .49-2.84-.04-.65-.39-1.13-1.06-1.28-1.81l-1.05-4.73c-.23-1.66-1.69-3.05-3.37-3.14-3.46-.33-6.92-.65-10.39-.98-.01-3.98-.01-7.95-.01-11.93zM1.31 38.7h4.43v3.65h-4.43v-3.65zM26.46 38.7h4.62c0 1.98.01 3.97-.01 5.95-.39 3.2-.81 6.4-1.21 9.6h-2.22l-1.09-8.86c-.04-.31-.09-.62-.09-.93v-5.76zM41.02 38.7h4.43v8.12c.49-.72 1.14-1.34 1.93-1.72 1.41-.66 3.04-.9 4.56-.55 1.69.38 3.16 1.53 4.01 3.03 1.07 1.8 1.36 3.95 1.25 6.01-.08 2.03-.71 4.11-2.07 5.65-1.15 1.31-2.88 2.08-4.62 2.07-1.28-.02-2.61-.22-3.74-.86-.67-.38-1.16-.99-1.55-1.64-.01.7 0 1.4 0 2.1h-4.2v-22.21zm7.36 9.08c-1.25.2-2.22 1.23-2.63 2.39-.53 1.45-.57 3.06-.24 4.57.23 1.01.72 2.02 1.58 2.64.86.66 2.05.76 3.07.46 1.12-.35 1.9-1.37 2.27-2.45.47-1.42.5-2.97.18-4.42-.23-1.03-.75-2.05-1.63-2.67-.75-.55-1.72-.67-2.6-.52zM88.67 38.7h4.43v22.21h-4.43v-22.21zM96.22 38.7h4.43v3.65h-4.43v-3.65zM14.61 44.55c1.65-.29 3.38-.2 4.98.33 1.49.49 2.86 1.48 3.65 2.85.5.83.72 1.8.79 2.76h-4.33c-.14-.86-.5-1.74-1.25-2.24-.85-.55-1.94-.64-2.91-.43-1.3.32-2.18 1.54-2.54 2.77-.45 1.6-.44 3.35.1 4.93.38 1.12 1.26 2.14 2.45 2.38 1 .18 2.12.07 2.95-.56.8-.63 1.2-1.63 1.35-2.62h4.27c-.23 1.76-.93 3.52-2.28 4.71-1.61 1.45-3.85 1.95-5.97 1.84-1.91-.08-3.83-.78-5.22-2.13-1.47-1.41-2.28-3.43-2.38-5.46-.11-2.12.31-4.33 1.53-6.1 1.09-1.59 2.88-2.69 4.81-3.03zM65.89 44.45c1.78-.2 3.67.05 5.2 1.03 1.36.83 2.38 2.14 2.97 3.61.62 1.53.84 3.21.73 4.86h-11.6c.06 1.06.26 2.22 1.03 3.02.87.9 2.21 1.11 3.41 1.01 1.25-.12 2.52-.86 3-2.06h3.9c-.51 1.56-1.34 3.11-2.73 4.06-1.76 1.2-4 1.5-6.08 1.26-1.93-.21-3.83-1.1-5.06-2.63-1.41-1.7-1.97-3.98-1.87-6.15.06-1.74.6-3.49 1.65-4.89 1.27-1.75 3.31-2.89 5.45-3.12zm-1.41 4.03c-.82.62-1.2 1.65-1.29 2.65h7.18c-.18-.91-.47-1.84-1.11-2.54-.45-.5-1.1-.75-1.76-.82-1.04-.14-2.18.02-3.02.71zM84.27 44.79c.95-.38 2.02-.54 3.02-.26v4.12c-1.07-.18-2.21-.26-3.26.1-.85.29-1.58.89-2 1.68-.53.96-.65 2.07-.68 3.15v7.32h-4.43v-16.08h4.22c.01 1.01-.03 2.02.02 3.03.58-1.38 1.71-2.51 3.11-3.06zM109.53 45.36c1.22-.79 2.72-1.09 4.17-.94 1.43.08 2.94.59 3.85 1.76.97 1.25 1.14 2.89 1.2 4.41.01 3.44 0 6.88 0 10.32h-4.43v-9.52c-.05-.92-.16-1.9-.71-2.66-.56-.74-1.57-.89-2.43-.83-.89.04-1.83.38-2.34 1.15-.59.89-.7 2-.74 3.04v8.82h-4.43v-16.08h4.22c.01.76-.03 1.53.02 2.29.42-.69.94-1.32 1.62-1.76zM1.31 44.82h4.43v16.08h-4.43v-16.08zM96.22 44.82h4.43v16.08h-4.43v-16.08zM155.96 45.88c.9-.16 1.82-.13 2.74-.12v20.07h-31.68v-14.63c2.85.2 5.68.63 8.52.96.81.12 1.67.12 2.41.52.98.5 1.74 1.45 1.97 2.53.3 1.61.62 3.21.93 4.82.1.85.49 1.67 1.14 2.24 1.14 1.06 3.03 1.15 4.27.2.66-.46 1.04-1.18 1.34-1.9 1.91-4.13 3.83-8.25 5.72-12.38.42-1.16 1.44-2.06 2.64-2.31zM26.33 56.09h4.91v4.81h-4.91v-4.81z"/></svg>