<svg xmlns="http://www.w3.org/2000/svg" width="160" height="100" viewBox="0 0 160 100"><path fill="#010101" d="M88.6 34.47c1.21-.07 2.43-.01 3.64-.03-5.33 4.73-10.64 9.49-15.97 14.23 5.77 5.61 11.51 11.25 17.25 16.9-1.23.01-2.46 0-3.7 0-5.54-5.43-11.06-10.88-16.61-16.29-.01 5.43-.01 10.86 0 16.28l-2.79.01v-31.13l2.79.01c-.01 4.58-.01 9.17 0 13.75 5.14-4.58 10.24-9.19 15.39-13.73zM1.6 34.44c1.36.01 2.72 0 4.08 0l12.11 26.98c3.84-8.99 7.65-17.99 11.48-26.99h4.23v31.13h-2.63c0-9.41.01-18.83-.01-28.25-4.03 9.41-8.05 18.83-12.06 28.25-.68 0-1.37.01-2.05-.01-4.14-9.23-8.3-18.45-12.45-27.67-.02 9.23 0 18.46-.01 27.68h-2.68l-.01-31.12zM39.13 34.45c1.15-.02 2.31-.01 3.46-.01 3.13 5 6.29 9.98 9.44 14.97 3.09-4.99 6.21-9.97 9.3-14.97 1.01-.01 2.02 0 3.03 0l-10.84 17.25c-.1.16-.21.32-.19.52v13.36h-2.84c-.01-4.45.02-8.91-.02-13.36-3.75-5.94-7.55-11.85-11.34-17.76zM100.74 34.44h2.84c-.01 10.37 0 20.75 0 31.12h-2.84c.01-10.37.01-20.75 0-31.12zM109.75 37l-.01-2.56h22.74c0 .85-.01 1.71 0 2.56-3.29-.01-6.58.01-9.87-.01-.02 9.52 0 19.05-.01 28.57h-2.92v-28.57c-3.3 0-6.62 0-9.93.01zM130.64 65.56c4.04-10.37 8.07-20.75 12.1-31.12 1.14-.01 2.28 0 3.42 0 4.09 10.37 8.16 20.75 12.24 31.12-1.03.01-2.07.01-3.1 0-1.08-2.85-2.19-5.69-3.28-8.53h-15.16c-.94 2.49-1.91 4.98-2.87 7.46-.17.35-.22.77-.46 1.07-.96.02-1.92-.01-2.89 0zm13.77-28.57l-6.72 17.71c4.49 0 8.98.01 13.47 0-2.25-5.91-4.54-11.8-6.75-17.71z"/></svg>