<svg xmlns="http://www.w3.org/2000/svg" width="334" height="70" viewBox="0 0 334 70"><path fill="#fff" d="M265.04 2h66.06v11.41c-2.13.15-4.27.02-6.36.42-2.59.6-4.9 2.5-5.84 5-3.96 9.17-7.94 18.35-11.9 27.55-.48 1.17-1.36 2.19-2.46 2.82-1.79 1.06-4.17 1.02-5.92-.08-1.36-.81-2.36-2.21-2.67-3.77l-2.19-9.86c-.48-3.46-3.52-6.36-7.03-6.55-7.22-.69-14.43-1.36-21.67-2.04-.02-8.32-.02-16.6-.02-24.9zm-262.14 9.43h9.24v7.61h-9.24v-7.61zm52.44 0h9.63c0 4.13.02 8.28-.02 12.41-.81 6.67-1.69 13.35-2.52 20.02h-4.63l-2.27-18.48c-.08-.65-.19-1.29-.19-1.94v-12.01zm30.36 0h9.24v16.93c1.02-1.5 2.38-2.79 4.02-3.59 2.94-1.38 6.34-1.88 9.51-1.15 3.52.79 6.59 3.19 8.36 6.32 2.23 3.75 2.84 8.24 2.61 12.53-.17 4.23-1.48 8.57-4.32 11.78-2.4 2.73-6.01 4.34-9.63 4.32-2.67-.04-5.44-.46-7.8-1.79-1.4-.79-2.42-2.06-3.23-3.42-.02 1.46 0 2.92 0 4.38h-8.76v-46.31zm15.35 18.93c-2.61.42-4.63 2.56-5.48 4.98-1.11 3.02-1.19 6.38-.5 9.53.48 2.11 1.5 4.21 3.29 5.51 1.79 1.38 4.27 1.58 6.4.96 2.34-.73 3.96-2.86 4.73-5.11.98-2.96 1.04-6.19.38-9.22-.48-2.15-1.56-4.27-3.4-5.57-1.56-1.14-3.58-1.39-5.42-1.08zm84.02-18.93h9.24v46.31h-9.24v-46.31zm15.74 0h9.24v7.61h-9.24v-7.61zm-170.18 12.19c3.44-.6 7.05-.42 10.38.69 3.11 1.02 5.96 3.09 7.61 5.94 1.04 1.73 1.5 3.75 1.65 5.76h-9.03c-.29-1.79-1.04-3.63-2.61-4.67-1.77-1.15-4.05-1.33-6.07-.9-2.71.67-4.55 3.21-5.3 5.78-.94 3.34-.92 6.99.21 10.28.79 2.34 2.63 4.46 5.11 4.96 2.09.38 4.42.15 6.15-1.17 1.67-1.31 2.5-3.4 2.82-5.46h8.9c-.48 3.67-1.94 7.34-4.75 9.82-3.36 3.02-8.03 4.07-12.45 3.84-3.98-.17-7.99-1.63-10.89-4.44-3.07-2.94-4.75-7.15-4.96-11.39-.23-4.42.65-9.03 3.19-12.72 2.28-3.31 6.02-5.61 10.04-6.32zm106.94-.2c3.71-.42 7.65.1 10.84 2.15 2.84 1.73 4.96 4.46 6.19 7.53 1.29 3.19 1.75 6.69 1.52 10.13h-24.19c.13 2.21.54 4.63 2.15 6.3 1.81 1.88 4.61 2.31 7.11 2.11 2.61-.25 5.25-1.79 6.26-4.3h8.13c-1.06 3.25-2.79 6.49-5.69 8.47-3.67 2.5-8.34 3.13-12.68 2.63-4.02-.44-7.99-2.29-10.55-5.48-2.94-3.55-4.11-8.3-3.9-12.82.13-3.63 1.25-7.28 3.44-10.2 2.65-3.67 6.9-6.04 11.37-6.52zm-2.94 8.4c-1.71 1.29-2.5 3.44-2.69 5.53h14.97c-.38-1.9-.98-3.84-2.31-5.3-.94-1.04-2.29-1.56-3.67-1.71-2.18-.29-4.55.04-6.3 1.48zm41.26-7.69c1.98-.79 4.21-1.13 6.3-.54v8.59c-2.23-.38-4.61-.54-6.8.21-1.77.6-3.29 1.86-4.17 3.5-1.11 2-1.36 4.32-1.42 6.57v15.26h-9.24v-33.53h8.8c.02 2.11-.06 4.21.04 6.32 1.22-2.88 3.57-5.24 6.49-6.38zm52.68 1.18c2.54-1.65 5.67-2.27 8.7-1.96 2.98.17 6.13 1.23 8.03 3.67 2.02 2.61 2.38 6.03 2.5 9.2.02 7.17 0 14.35 0 21.52h-9.24v-19.85c-.1-1.92-.33-3.96-1.48-5.55-1.17-1.54-3.27-1.86-5.07-1.73-1.86.08-3.82.79-4.88 2.4-1.23 1.86-1.46 4.17-1.54 6.34v18.39h-9.24v-33.53h8.8c.02 1.58-.06 3.19.04 4.78.88-1.44 1.96-2.76 3.38-3.68zm-225.67-1.12h9.24v33.53h-9.24v-33.53zm197.91 0h9.24v33.53h-9.24v-33.53zm124.58 2.21c1.88-.33 3.8-.27 5.71-.25v41.85h-66.06v-30.51c5.94.42 11.84 1.31 17.77 2 1.69.25 3.48.25 5.03 1.08 2.04 1.04 3.63 3.02 4.11 5.28.63 3.36 1.29 6.69 1.94 10.05.21 1.77 1.02 3.48 2.38 4.67 2.38 2.21 6.32 2.4 8.9.42 1.38-.96 2.17-2.46 2.79-3.96 3.98-8.61 7.99-17.2 11.93-25.82.87-2.41 3-4.29 5.5-4.81zm-270.32 21.29h10.24v10.03h-10.24v-10.03z"/></svg>