<svg xmlns="http://www.w3.org/2000/svg" width="158" height="28" viewBox="0 0 158 28"><g fill-rule="evenodd" clip-rule="evenodd" fill="#1D1D1B"><path d="M83.8 22.8h4.5v-13.5h3.1v-3h-3.1v-1c0-1.4.5-1.9 1.7-1.9.6 0 1.1 0 1.7.1v-3.4l-2.4-.1c-3.7 0-5.5 2.1-5.5 5v1.3h-2.7v3h2.7v13.5zM96.8 12.8c.1-1.3.9-3.5 3.8-3.5 2.2 0 3.2 1.2 3.6 3.5h-7.4zm12 2.9c.3-5.1-2.4-9.8-8-9.8-5 0-8.4 3.8-8.4 8.7 0 5.1 3.2 8.7 8.4 8.7 3.7 0 6.5-1.7 7.7-5.6h-4c-.3 1-1.8 2.1-3.6 2.1-2.5 0-3.9-1.3-4.1-4.2h12zM111.1 22.8h4.5v-7.4c0-2.9 1.2-5.3 4.5-5.3.5 0 1.2.1 1.6.2v-4.3c-.3-.1-.7-.2-1-.2-2.2 0-4.4 1.4-5.3 3.5h-.1v-3h-4.3v16.5zM127.6 11.4c.2-1.8 1.3-2.5 3-2.5 1.6 0 2.9.3 2.9 2.2 0 1.9-2.6 1.8-5.4 2.2-2.8.4-5.6 1.3-5.6 5 0 3.4 2.5 5 5.6 5 2 0 4.1-.5 5.6-2 0 .5.2 1.1.3 1.6h4.6c-.4-.7-.6-2.2-.6-3.7v-8.6c0-4-4-4.7-7.3-4.7-3.7 0-7.5 1.3-7.8 5.5h4.7zm5.9 5c0 1-.1 3.8-3.7 3.8-1.5 0-2.8-.4-2.8-2.1 0-1.7 1.3-2.1 2.7-2.4 1.4-.3 3-.3 3.8-1v1.7zM145.3 14.6c0-2.7.9-5.3 4-5.3s4 2.7 4 5.3c0 2.6-.9 5.3-4 5.3-3.1-.1-4-2.7-4-5.3zm-4.6 0c0 5.2 3.4 8.7 8.5 8.7 5.2 0 8.6-3.5 8.6-8.7 0-5.3-3.4-8.7-8.6-8.7-5.1-.1-8.5 3.4-8.5 8.7zM16 28h1.7v-7.9h.1c.7 2 2.8 3.1 4.9 3.1 4.3 0 6.3-3.5 6.3-7.4 0-4-2-7.4-6.3-7.4-2.3 0-4.2 1.2-5 3.1h-.1v-2.7h-1.6v19.2zm11.3-12.2c0 2.9-1.3 6-4.6 6-3.6 0-4.9-3.1-4.9-6 0-3.2 1.1-6 4.9-6 3.2 0 4.6 3.1 4.6 6zM6.8 9.8c3.3 0 4.9 3 4.9 6s-1.6 6-4.9 6-4.9-3-4.9-6 1.6-6 4.9-6zm0-1.4c-4.3 0-6.6 3.4-6.6 7.4s2.3 7.4 6.6 7.4 6.6-3.4 6.6-7.4-2.3-7.4-6.6-7.4zM34.4 4.6h-1.7v4.2h-2.4v1.4h2.4v9.6c0 2.4.8 3.2 3 3.2l1.5-.1v-1.5c-.5.1-1 .1-1.5.1-1.2-.1-1.4-.7-1.4-1.8v-9.5h2.9v-1.4h-2.9v-4.2zM39.8 6.5h1.7v-2h-1.7v2zm0 16.3h1.7v-14h-1.7v14zM56.5 13.2c-.4-3.2-2.7-4.8-5.7-4.8-4.3 0-6.6 3.4-6.6 7.4s2.3 7.4 6.6 7.4c3.1 0 5.3-2.1 5.8-5.4h-1.7c-.2 2.3-2 4-4.1 4-3.3 0-4.9-3-4.9-6s1.6-6 4.9-6c2.2 0 3.5 1.3 4 3.4h1.7zM60.5 13.1c.1-2.3 1.6-3.3 3.8-3.3 2 0 3.7.6 3.7 2.9 0 1.6-.8 1.7-2.2 1.9-3.7.4-7.5.6-7.5 4.5 0 2.8 2.1 4.1 4.7 4.1 2.7 0 3.9-1 5.1-2.9h.1c0 1.5.3 2.4 2 2.4.5 0 .7 0 1.1-.1v-1.4c-.1.1-.4.1-.5.1-.7 0-1-.4-1-1v-7.5c0-3.8-2.7-4.5-5.2-4.5-3.2 0-5.5 1.4-5.7 4.7h1.6zm7.5 4.3c0 2.7-2.3 4.4-4.9 4.4-1.6 0-3.1-1.1-3.1-2.8 0-2.7 3.6-2.7 6.5-3.2.5-.1 1.2-.2 1.4-.6h.1v2.2zM3.8 6h5.8v1.3h-5.8z"/></g></svg>